<svg xmlns="http://www.w3.org/2000/svg" width="34.103" height="21.453" viewBox="0 0 34.103 21.453"><defs><style>.a{fill:#c1272d;}</style></defs><path class="a" d="M19.775,8.547a8.891,8.891,0,0,0-8,5.131,4.672,4.672,0,0,0-2.664-.919,4.761,4.761,0,0,0-4.724,4.5A6.554,6.554,0,0,0,6.6,30H28.031A6.081,6.081,0,0,0,34.1,23.928a6.018,6.018,0,0,0-5.393-5.933c.011-.16.032-.314.032-.48A8.978,8.978,0,0,0,19.775,8.547Zm0,1.364a7.565,7.565,0,0,1,7.54,8.547l-.1.765h.813a4.707,4.707,0,1,1,0,9.413H6.6A5.228,5.228,0,0,1,5.2,18.368l.52-.144L5.7,17.688c0-.1-.008-.144-.008-.149a3.416,3.416,0,0,1,5.832-2.414l.751.754.373-1A7.592,7.592,0,0,1,19.775,9.911Zm-5.459,7.8a.691.691,0,0,0-.631.426.682.682,0,0,0,.157.746l2.928,2.928-2.928,2.928a.682.682,0,1,0,.964.964l2.928-2.928,2.928,2.928a.682.682,0,1,0,.964-.964L18.7,21.815l2.928-2.928a.682.682,0,1,0-.964-.964l-2.928,2.928-2.928-2.928A.687.687,0,0,0,14.315,17.715Z" transform="translate(0 -8.547)"/></svg>