<svg xmlns="http://www.w3.org/2000/svg" width="380.486" height="293.629" viewBox="0 0 380.486 293.629">
  <g id="Grupo_5024" data-name="Grupo 5024" transform="translate(19338.371 11919.088)">
    <path id="Trazado_2959" data-name="Trazado 2959" d="M1306.309,1678.886l3.734,6.828,6.827,3.733-6.827,3.734-3.734,6.827-3.734-6.827-6.827-3.734,6.827-3.733Z" transform="translate(-20633.078 -13398.633)" fill="none" stroke="#fff" stroke-miterlimit="10" stroke-width="1"/>
    <path id="Trazado_2960" data-name="Trazado 2960" d="M1306.309,1678.886l3.734,6.828,6.827,3.733-6.827,3.734-3.734,6.827-3.734-6.827-6.827-3.734,6.827-3.733Z" transform="translate(-20312.797 -13388.098)" fill="none" stroke="#fff" stroke-miterlimit="10" stroke-width="1"/>
    <path id="Trazado_2966" data-name="Trazado 2966" d="M1306.309,1678.886l3.734,6.828,6.827,3.733-6.827,3.734-3.734,6.827-3.734-6.827-6.827-3.734,6.827-3.733Z" transform="translate(-20275.797 -13529.098)" fill="none" stroke="#fff" stroke-miterlimit="10" stroke-width="1"/>
    <path id="Trazado_2967" data-name="Trazado 2967" d="M1306.309,1678.886l3.734,6.828,6.827,3.733-6.827,3.734-3.734,6.827-3.734-6.827-6.827-3.734,6.827-3.733Z" transform="translate(-20571.797 -13584.098)" fill="none" stroke="#fff" stroke-miterlimit="10" stroke-width="1"/>
    <path id="Trazado_2963" data-name="Trazado 2963" d="M1306.309,1678.886l3.734,6.828,6.827,3.733-6.827,3.734-3.734,6.827-3.734-6.827-6.827-3.734,6.827-3.733Z" transform="translate(-20377.797 -13581.098)" fill="none" stroke="#fff" stroke-miterlimit="10" stroke-width="1"/>
    <path id="Trazado_2961" data-name="Trazado 2961" d="M1302.542,1678.886l2.4,4.391,4.392,2.4-4.392,2.4-2.4,4.392-2.4-4.392-4.391-2.4,4.391-2.4Z" transform="translate(-20370.199 -13318.453)" fill="none" stroke="#fff" stroke-miterlimit="10" stroke-width="0.5"/>
    <path id="Trazado_2965" data-name="Trazado 2965" d="M1302.542,1678.886l2.4,4.391,4.392,2.4-4.392,2.4-2.4,4.392-2.4-4.392-4.391-2.4,4.391-2.4Z" transform="translate(-20612.199 -13535.453)" fill="none" stroke="#fff" stroke-miterlimit="10" stroke-width="0.5"/>
    <path id="Trazado_2964" data-name="Trazado 2964" d="M1302.542,1678.886l2.4,4.391,4.392,2.4-4.392,2.4-2.4,4.392-2.4-4.392-4.391-2.4,4.391-2.4Z" transform="translate(-20337.199 -13597.453)" fill="none" stroke="#fff" stroke-miterlimit="10" stroke-width="0.5"/>
    <path id="Trazado_2962" data-name="Trazado 2962" d="M1302.542,1678.886l2.4,4.391,4.392,2.4-4.392,2.4-2.4,4.392-2.4-4.392-4.391-2.4,4.391-2.4Z" transform="translate(-20540.225 -13535.725)" fill="none" stroke="#fff" stroke-miterlimit="10" stroke-width="0.5"/>
    <g id="Elipse_785" data-name="Elipse 785" transform="translate(-19288 -11800)" fill="none" stroke="#fff" stroke-width="0.25">
      <circle cx="6" cy="6" r="6" stroke="none"/>
      <circle cx="6" cy="6" r="5.875" fill="none"/>
    </g>
    <g id="Elipse_789" data-name="Elipse 789" transform="translate(-19231 -11913)" fill="none" stroke="#fff" stroke-width="1">
      <circle cx="6" cy="6" r="6" stroke="none"/>
      <circle cx="6" cy="6" r="5.5" fill="none"/>
    </g>
    <g id="Elipse_788" data-name="Elipse 788" transform="translate(-19012 -11791)" fill="none" stroke="#fff" stroke-width="0.5">
      <circle cx="6" cy="6" r="6" stroke="none"/>
      <circle cx="6" cy="6" r="5.75" fill="none"/>
    </g>
    <g id="Elipse_786" data-name="Elipse 786" transform="translate(-19077 -11836)" fill="none" stroke="#fff" stroke-width="0.25">
      <ellipse cx="6" cy="6.5" rx="6" ry="6.5" stroke="none"/>
      <ellipse cx="6" cy="6.5" rx="5.875" ry="6.375" fill="none"/>
    </g>
    <g id="Elipse_787" data-name="Elipse 787" transform="translate(-19182 -11650)" fill="none" stroke="#fff" stroke-width="0.25">
      <circle cx="6.5" cy="6.5" r="6.5" stroke="none"/>
      <circle cx="6.5" cy="6.5" r="6.375" fill="none"/>
    </g>
  </g>
</svg>
