<svg xmlns="http://www.w3.org/2000/svg" viewBox="0 0 8.22 8.22"><defs><style>.cls-1{fill:#c1272d;}</style></defs><title>close_icon</title><g id="Capa_2" data-name="Capa 2"><g id="Capa_1-2" data-name="Capa 1"><path id="icons8-cloud_cross" data-name="icons8-cloud cross" class="cls-1" d="M.69,0A.67.67,0,0,0,.06.44a.66.66,0,0,0,.16.74L3.14,4.11.22,7a.68.68,0,1,0,.93,1l0,0L4.11,5.07,7,8A.68.68,0,0,0,8,8a.67.67,0,0,0,0-1H8L8,7,5.08,4.11,8,1.18a.69.69,0,0,0,0-1,.69.69,0,0,0-1,0h0l0,0L4.11,3.15,1.18.22A.71.71,0,0,0,.69,0Z"/></g></g></svg>