<svg xmlns="http://www.w3.org/2000/svg" width="166" height="166" viewBox="0 0 166 166">
  <g id="Grupo_5040" data-name="Grupo 5040" transform="translate(-607 -291)">
    <path id="icons8-fingerprint" d="M55.765,7a54.729,54.729,0,0,0-8.6.786,1.531,1.531,0,1,0,.517,3.017,51.692,51.692,0,0,1,8.124-.742h.41A51.233,51.233,0,0,1,93.773,26.2a1.531,1.531,0,1,0,2.222-2.108A54.373,54.373,0,0,0,56.214,7h-.448ZM35.311,11.377a1.531,1.531,0,1,0,1.531,1.531,1.531,1.531,0,0,0-1.531-1.531Zm-4.625,2.314L29.46,14.3l-.242,1.351.936,1,.532.1,1.226-.616.242-1.351-.939-1Zm25.175.963a47.047,47.047,0,0,0-24.395,7.167,1.531,1.531,0,1,0,1.624,2.6,43.956,43.956,0,0,1,22.81-6.7h.314A44.627,44.627,0,0,1,67.659,19.19a1.531,1.531,0,1,0,.786-2.957,47.718,47.718,0,0,0-12.232-1.579h-.353ZM26.27,16.385,25.044,17,24.8,18.35l.936,1,.532.1,1.226-.613.242-1.351-.936-1Zm49.349,2.547-1.226.616L74.15,20.9l.939,1,.529.1,1.226-.613.242-1.351-.936-1Zm-53.469.586a1.531,1.531,0,1,0,1.531,1.531,1.531,1.531,0,0,0-1.531-1.531Zm58.815,2.392-1.226.613L79.5,23.875l.939,1,.529.1,1.226-.616.242-1.348-.936-1Zm-25.008.4A39.983,39.983,0,0,0,18.239,51.021a1.531,1.531,0,1,0,2.939.861A36.925,36.925,0,0,1,55.987,25.37a36.173,36.173,0,0,1,16.756,3.908,1.531,1.531,0,1,0,1.39-2.727,39.27,39.27,0,0,0-18.167-4.243h-.009Zm29.9,3.274-1.226.613-.242,1.351.939,1,.529.1,1.226-.616.242-1.348-.936-1Zm4.362,4.288L89,30.486l-.242,1.351.936,1,.532.093,1.226-.613.242-1.351-.936-1Zm-34.169.093A32.035,32.035,0,0,0,35.216,38a1.531,1.531,0,1,0,2.024,2.3,28.942,28.942,0,0,1,18.848-7.269C73.319,32.809,86.57,47.945,85.44,65.2a1.531,1.531,0,1,0,3.056.2C89.736,46.463,75.1,29.725,56.052,29.963ZM19.77,33.111a1.531,1.531,0,0,0-1.283.628A47.173,47.173,0,0,0,9,62.107V66.7a1.531,1.531,0,1,0,3.062,0V62.107a44.083,44.083,0,0,1,8.877-26.53,1.531,1.531,0,0,0-1.169-2.467ZM83.8,34.128a1.531,1.531,0,0,0-1.136,2.6A38.56,38.56,0,0,1,93.077,65.7a59.886,59.886,0,0,1-1.934,11.607,5.14,5.14,0,0,0,3.6,6.255,38.69,38.69,0,0,0,5.274,1.049,1.531,1.531,0,1,0,.395-3.035,35.533,35.533,0,0,1-4.856-.966h0a2.036,2.036,0,0,1-1.45-2.509v0a62.938,62.938,0,0,0,2.033-12.2A41.6,41.6,0,0,0,84.887,34.618a1.531,1.531,0,0,0-1.085-.49Zm10.2.556-1.229.613-.239,1.351.936,1,.532.1,1.226-.616.242-1.348-.939-1Zm-37.544,2.93A24.517,24.517,0,0,0,31.963,62.107a1.531,1.531,0,1,0,3.062,0,21.437,21.437,0,0,1,41.3-8.064,1.531,1.531,0,1,0,2.834-1.154A24.509,24.509,0,0,0,56.456,37.614Zm41.772,4.73a1.531,1.531,0,0,0-1.345,2.165A46.381,46.381,0,0,1,100.716,66.2,66.578,66.578,0,0,1,99.5,75.179a1.531,1.531,0,1,0,3,.613,69.625,69.625,0,0,0,1.265-9.388,49.428,49.428,0,0,0-4.084-23.127,1.531,1.531,0,0,0-1.456-.933Zm-68.254,2.9a1.531,1.531,0,0,0-1.351.783,31.983,31.983,0,0,0-4.314,16.077V66.7a1.531,1.531,0,1,0,3.062,0V62.107a28.9,28.9,0,0,1,3.9-14.543,1.531,1.531,0,0,0-1.3-2.317Zm26.482.021a1.531,1.531,0,1,0,0,3.062A13.756,13.756,0,0,1,70.234,62.107a39.533,39.533,0,0,1-3.274,14.71,1.531,1.531,0,0,0,2.82,1.2A42.241,42.241,0,0,0,73.3,62.107,16.864,16.864,0,0,0,56.456,45.268ZM48.8,47.316a1.531,1.531,0,1,0,1.531,1.531A1.531,1.531,0,0,0,48.8,47.316Zm-4.4,3.845-1.226.616-.242,1.348.939,1,.529.1,1.229-.613.239-1.351-.936-1Zm12.058,1.716a9.179,9.179,0,0,0-9.185,9.143,1.531,1.531,0,1,0,3.062,0,6.058,6.058,0,0,1,6.123-6.082A6.142,6.142,0,0,1,62.579,62.1c0-.188-.01.962-.233,2.574a37.248,37.248,0,0,1-1.5,6.434A35.083,35.083,0,0,1,49.379,87.794a1.531,1.531,0,1,0,1.908,2.4A38.205,38.205,0,0,0,63.754,72.067,40.221,40.221,0,0,0,65.378,65.1a22.533,22.533,0,0,0,.263-3A9.237,9.237,0,0,0,56.456,52.877Zm-14.7,3.492-1.229.613-.239,1.351.936,1,.532.1,1.226-.616.242-1.348-.939-1Zm-23.6,4.186a1.531,1.531,0,0,0-1.507,1.552V66.7a1.531,1.531,0,1,0,3.062,0V62.107a1.531,1.531,0,0,0-1.555-1.552Zm38.271,0a1.531,1.531,0,0,0-1.507,1.552,26.512,26.512,0,0,1-4.207,12.919C46.511,81.645,38.2,88.578,20.8,89.549a1.532,1.532,0,0,0,.17,3.059c18.171-1.013,27.645-8.565,32.33-15.936a29.917,29.917,0,0,0,4.685-14.564,1.531,1.531,0,0,0-1.555-1.552Zm22.963,0a1.531,1.531,0,0,0-1.507,1.552,46.953,46.953,0,0,1-5.31,21.01,6.017,6.017,0,0,0,2.027,7.8A58.742,58.742,0,0,0,89,97.849a1.531,1.531,0,1,0,.912-2.921,55.581,55.581,0,0,1-13.649-6.59,2.912,2.912,0,0,1-.96-3.824A49.887,49.887,0,0,0,80.95,62.107a1.531,1.531,0,0,0-1.555-1.552ZM40.95,62.173l-1.226.616-.242,1.348.936,1,.532.093,1.226-.613.242-1.351-.939-1Zm6.428,4.509A1.531,1.531,0,0,0,46,67.663c-2.253,5.627-8.248,13.473-26.353,14.28A1.531,1.531,0,1,0,19.785,85c18.987-.846,26.441-9.666,29.059-16.2a1.531,1.531,0,0,0-1.465-2.117Zm-8.973.712-1.226.616-.242,1.351.936,1,.532.093,1.226-.613.242-1.351-.936-1Zm-4.6,3.594-1.226.616-.242,1.348.936,1,.532.1,1.226-.616.242-1.348-.936-1Zm-5.481,2.081-1.229.616-.239,1.348.936,1,.532.1,1.226-.613.242-1.351-.939-1Zm56.886.87a1.531,1.531,0,0,0-1.4,1.16,57,57,0,0,1-2.491,7.352A3.537,3.537,0,0,0,82.842,86.9a44.9,44.9,0,0,0,11.7,4.5,1.531,1.531,0,1,0,.682-2.984A41.667,41.667,0,0,1,84.31,84.215a.444.444,0,0,1-.167-.589,60.044,60.044,0,0,0,2.625-7.747,1.531,1.531,0,0,0-1.561-1.94Zm-62.675.135-1.229.616-.239,1.348.936,1,.532.1,1.226-.613L24,75.17l-.939-1Zm-5.878.281a1.531,1.531,0,1,0,1.531,1.531,1.531,1.531,0,0,0-1.531-1.531Zm48.987,6.123a1.531,1.531,0,1,0,1.531,1.531A1.531,1.531,0,0,0,65.641,80.477ZM62.579,85.07A1.531,1.531,0,1,0,64.11,86.6,1.531,1.531,0,0,0,62.579,85.07Zm.012,5.552a11.228,11.228,0,0,0-7.173,2.526,51.632,51.632,0,0,1-22.245,10.19,1.531,1.531,0,1,0,.64,2.993A54.744,54.744,0,0,0,57.356,95.523a8.2,8.2,0,0,1,10.435.051,49.623,49.623,0,0,0,13.739,7.989,1.531,1.531,0,1,0,1.112-2.853,46.513,46.513,0,0,1-12.9-7.493A11.289,11.289,0,0,0,62.591,90.622ZM41.148,92.9a1.531,1.531,0,1,0,1.531,1.531A1.531,1.531,0,0,0,41.148,92.9Zm-4.963,1.8-1.226.613-.242,1.351.936,1,.532.1,1.226-.616.242-1.351-.936-1Zm-5.131,1.25-1.226.613-.242,1.351.936,1,.532.1L32.28,98.4l.242-1.351-.936-1Zm-5.214.849a1.531,1.531,0,1,0,1.531,1.531,1.531,1.531,0,0,0-1.531-1.531Zm36.725,1.471a3.6,3.6,0,0,0-2.305.8,53.429,53.429,0,0,1-9.284,6.067,1.531,1.531,0,1,0,1.405,2.721,56.489,56.489,0,0,0,9.813-6.413.554.554,0,0,1,.715.018v0a56.047,56.047,0,0,0,10.551,6.883,1.531,1.531,0,1,0,1.378-2.733,52.96,52.96,0,0,1-9.977-6.506l0,0A3.644,3.644,0,0,0,62.564,98.276Z" transform="translate(634 316)" fill="#e6e6e6"/>
    <g id="Elipse_790" data-name="Elipse 790" transform="translate(607 291)" fill="none" stroke="#707070" stroke-width="1">
      <circle cx="83" cy="83" r="83" stroke="none"/>
      <circle cx="83" cy="83" r="82.5" fill="none"/>
    </g>
  </g>
</svg>
