<svg xmlns="http://www.w3.org/2000/svg" width="34.264" height="31.98" viewBox="0 0 34.264 31.98"><defs><style>.a{fill:#F2F2F2;}</style></defs><path class="a" d="M27.99,12a.571.571,0,1,0,.571.571A.572.572,0,0,0,27.99,12Zm3.023.294a.573.573,0,1,0,.1.011C31.077,12.3,31.046,12.3,31.013,12.294Zm-6.027,0a.652.652,0,0,0-.114.009.573.573,0,0,0-.205,1.037.578.578,0,0,0,.428.085.571.571,0,0,0-.109-1.131Zm-2.891.877a.592.592,0,0,0-.223.042.575.575,0,1,0,.223-.042Zm11.81,0a.568.568,0,1,0,.205.042A.592.592,0,0,0,33.9,13.173ZM19.431,14.6a.582.582,0,0,0-.326.1.568.568,0,1,0,.326-.1Zm17.134,0a.571.571,0,1,0,.551.462.577.577,0,0,0-.551-.462ZM17.1,16.515a.575.575,0,0,0-.41.17.569.569,0,1,0,.805,0A.562.562,0,0,0,17.1,16.515Zm21.805,0a.575.575,0,0,0-.41.17.569.569,0,1,0,.805,0A.562.562,0,0,0,38.9,16.515ZM15.179,18.853a.571.571,0,1,0,.308.1A.576.576,0,0,0,15.179,18.853Zm-1.421,2.666a.575.575,0,1,0,.205.045A.538.538,0,0,0,13.758,21.519Zm19.481.415L27.182,27.99l6.056,6.056.808-.808-4.678-4.678h16.9V27.419h-16.9l4.678-4.678ZM12.883,24.412a.571.571,0,0,0-.125,1.131.582.582,0,0,0,.428-.085.574.574,0,0,0-.205-1.037A.73.73,0,0,0,12.883,24.412Zm-.312,3.007a.571.571,0,1,0,.571.571A.572.572,0,0,0,12.571,27.419Zm.3,3.007a.655.655,0,0,0-.114.011.57.57,0,1,0,.114-.011Zm.879,2.893a.592.592,0,0,0-.223.042.574.574,0,0,0-.308.31.581.581,0,0,0,0,.437.57.57,0,0,0,.747.308.56.56,0,0,0,.31-.308.571.571,0,0,0-.524-.79Zm1.428,2.666a.556.556,0,0,0-.323.1.573.573,0,1,0,.323-.1ZM17.1,38.323a.57.57,0,1,0,.395.167A.55.55,0,0,0,17.1,38.323Zm21.805,0a.57.57,0,1,0,.395.167A.55.55,0,0,0,38.9,38.323ZM19.435,40.239a.57.57,0,1,0,.308.1A.567.567,0,0,0,19.435,40.239Zm17.128,0a.571.571,0,1,0,.468.252A.561.561,0,0,0,36.563,40.239ZM22.1,41.662a.575.575,0,1,0,.205.045A.584.584,0,0,0,22.1,41.662Zm11.792,0a.579.579,0,0,0-.531.352.587.587,0,0,0,0,.439.572.572,0,1,0,.533-.792Zm-8.9.879a.573.573,0,1,0,.1.011A.469.469,0,0,0,25,42.541Zm6,0a.461.461,0,0,0-.112.009.573.573,0,0,0-.451.671.575.575,0,0,0,.674.451A.571.571,0,0,0,31.559,43,.571.571,0,0,0,31,42.543Zm-3.009.294a.571.571,0,1,0,.571.571A.572.572,0,0,0,27.99,42.838Z" transform="translate(46.264 43.98) rotate(180)"/></svg>