<svg xmlns="http://www.w3.org/2000/svg" width="278.94" height="88.586" viewBox="0 0 278.94 88.586">
  <g id="Grupo_4835" data-name="Grupo 4835" transform="translate(-1787.848 -13956.748)">
    <path id="Trazado_2952" data-name="Trazado 2952" d="M450.211,201.445s-13.474,15.729,5.275,31.728c17.159,14.643,38.809,14.509,61.555,6.155l6.706-2.386s-18.6,19.236-51.628,11.7C439.249,241.146,431.172,214.312,450.211,201.445Z" transform="translate(1347.766 13783.804)" fill="#180a4c"/>
    <path id="Trazado_2953" data-name="Trazado 2953" d="M494.087,259.1s20.413,3.517,24.548-20.783c3.784-22.236-7.425-40.762-26.252-56.017l-5.488-4.533s26.051,6.118,36.5,38.339C533.8,248.175,514.9,268.86,494.087,259.1Z" transform="translate(1347.766 13783.804)" fill="#f62a0b"/>
    <path id="Trazado_2954" data-name="Trazado 2954" d="M522.318,192.643s-7.54-19.293-30.48-10.277c-20.992,8.251-31.192,28.3-34.524,52.3l-1.325-1.066-.937-.8c-.71-9.531.768-26.25,15.308-43.03C492.445,164.288,519.925,169.786,522.318,192.643Z" transform="translate(1347.766 13783.804)" fill="#f7da23"/>
    <g id="Grupo_4834" data-name="Grupo 4834" transform="translate(1347.766 13783.804)">
      <g id="Grupo_4831" data-name="Grupo 4831">
        <path id="Trazado_2945" data-name="Trazado 2945" d="M561.763,235.321a22.267,22.267,0,0,1-8.583,1.448c-11.627,0-17.617-7.285-17.617-16.87,0-11.475,8.184-17.812,18.366-17.812,3.942,0,6.938.747,8.282,1.495l-1.6,5.989a16,16,0,0,0-6.387-1.247c-5.986,0-10.68,3.642-10.68,11.127,0,6.737,3.993,10.979,10.731,10.979a18.209,18.209,0,0,0,6.388-1.1Z" fill="#fff"/>
        <path id="Trazado_2946" data-name="Trazado 2946" d="M574.442,202.584V236.22h-7.588V202.584Z" fill="#fff"/>
      </g>
      <path id="Trazado_2947" data-name="Trazado 2947" d="M587.726,202.793a68.869,68.869,0,0,1,10.044-.706c4.7,0,7.539.452,9.909,1.92a6.537,6.537,0,0,1,3.309,6.727c-.326,2.984-2.4,5.769-6.4,7.236l-.009.1c3.779,1.011,6.34,4,5.86,8.347A10.336,10.336,0,0,1,606.1,233.7c-2.693,1.976-6.964,3.088-13.747,3.088a58.062,58.062,0,0,1-8.291-.508Zm6.216,13.052h2.528c4.1,0,6.4-1.67,6.68-4.2.285-2.577-1.541-3.946-5.033-3.946a20.523,20.523,0,0,0-3.311.2Zm-1.656,15.126a24.271,24.271,0,0,0,2.971.1c3.492,0,6.727-1.366,7.118-4.96.369-3.387-2.565-4.753-6.41-4.753h-2.627Z" fill="#fff"/>
      <path id="Trazado_2948" data-name="Trazado 2948" d="M635.743,230.463a31.888,31.888,0,0,0-.249,5.972h-6.93l-.186-2.478h-.152a9.95,9.95,0,0,1-7.412,3.033c-5.008,0-7.6-3.642-7.164-7.588.7-6.424,6.8-9.462,15.559-9.462l.027-.3c.151-1.366-.352-3.238-4.145-3.238a15.081,15.081,0,0,0-7.034,1.872l-.877-4.959a21.894,21.894,0,0,1,9.855-2.223c8.249,0,10.3,4.854,9.655,10.725Zm-6.813-5.718c-4.046,0-7.287.963-7.61,3.9a2.447,2.447,0,0,0,2.716,2.935,4.869,4.869,0,0,0,4.3-2.833,5.9,5.9,0,0,0,.3-1.318Z" fill="#fff"/>
      <path id="Trazado_2949" data-name="Trazado 2949" d="M643.052,219.588c.336-3.085.52-5.668.662-7.892h6.676l-.022,3.439h.153a10.082,10.082,0,0,1,8.074-3.995c5.058,0,8.485,3.391,7.687,10.676l-1.6,14.619h-7.688l1.5-13.711c.345-3.188-.53-5.36-3.312-5.36a4.849,4.849,0,0,0-4.263,2.881,5.9,5.9,0,0,0-.456,1.926L648.9,236.435h-7.692Z" fill="#fff"/>
      <path id="Trazado_2950" data-name="Trazado 2950" d="M689.491,235.776a18.6,18.6,0,0,1-7.01,1.163c-7.993,0-12.562-4.908-11.716-12.646.792-7.234,6.4-13.153,15.6-13.153a16.967,16.967,0,0,1,5.761.959l-1.838,5.719a9.907,9.907,0,0,0-4.218-.759,7.292,7.292,0,0,0-7.382,6.93c-.493,4.5,2.277,6.93,6.021,6.93a11.476,11.476,0,0,0,4.488-.81Z" fill="#fff"/>
      <path id="Trazado_2951" data-name="Trazado 2951" d="M718.926,223.789c-.987,9.052-7.865,13.2-14.492,13.2-7.232,0-12.28-4.754-11.405-12.748.879-8.042,6.7-13.151,14.691-13.151C715.259,211.091,719.748,216.3,718.926,223.789Zm-17.934.25c-.465,4.25.957,7.436,4.248,7.436,3.032,0,5.234-2.984,5.724-7.486.4-3.643-.61-7.385-4.1-7.385C703.225,216.6,701.393,220.4,700.992,224.039Z" fill="#fff"/>
    </g>
  </g>
</svg>
