<svg xmlns="http://www.w3.org/2000/svg" width="41.478" height="42.597" viewBox="0 0 41.478 42.597">
  <g id="Grupo_4833" data-name="Grupo 4833" transform="translate(-27.848 -49.609)">
    <path id="Trazado_2942" data-name="Trazado 2942" d="M444.953,201.445s-6.479,7.563,2.536,15.256c8.251,7.041,18.661,6.977,29.6,2.96l3.225-1.147s-8.946,9.25-24.826,5.626C439.682,220.535,435.8,207.632,444.953,201.445Z" transform="translate(-412.234 -138.132)" fill="#180a4c"/>
    <path id="Trazado_2943" data-name="Trazado 2943" d="M490.353,216.874s9.816,1.691,11.8-9.993c1.82-10.692-3.57-19.6-12.623-26.936l-2.639-2.18s12.527,2.942,17.551,18.435C509.45,211.622,500.359,221.568,490.353,216.874Z" transform="translate(-436.537 -125.838)" fill="#f62a0b"/>
    <path id="Trazado_2944" data-name="Trazado 2944" d="M487.323,182.416s-3.626-9.277-14.656-4.942c-10.094,3.967-15,13.607-16.6,25.147l-.637-.513-.451-.385c-.341-4.583.369-12.622,7.361-20.691C472.959,168.782,486.172,171.426,487.323,182.416Z" transform="translate(-419.931 -123.335)" fill="#f7da23"/>
  </g>
</svg>
