<svg xmlns="http://www.w3.org/2000/svg" width="45.061" height="45.06" viewBox="0 0 45.061 45.06">
  <g id="Grupo_5031" data-name="Grupo 5031" transform="translate(19881.469 11345.18)">
    <g id="Grupo_5006" data-name="Grupo 5006" transform="translate(-19881.469 -11345.18)">
      <g id="Grupo_4883" data-name="Grupo 4883" transform="translate(0)">
        <path id="Trazado_2997" data-name="Trazado 2997" d="M1457.342-852.887a22.53,22.53,0,0,1,22.53,22.53,22.53,22.53,0,0,1-22.53,22.53,22.53,22.53,0,0,1-22.53-22.53,22.53,22.53,0,0,1,22.53-22.53Z" transform="translate(-1434.812 852.887)" fill="#464646"/>
      </g>
    </g>
    <g id="Grupo_5021" data-name="Grupo 5021" transform="translate(-19871.428 -11337.654)">
      <path id="Trazado_3221" data-name="Trazado 3221" d="M1652.113-250.743h-2a3.5,3.5,0,0,0-3.5,3.5v5.494h8.99v-5.494A3.5,3.5,0,0,0,1652.113-250.743Zm-4.5,7.995v-4.5a2.5,2.5,0,0,1,2.5-2.5h2a2.5,2.5,0,0,1,2.5,2.5v4.5Z" transform="translate(-1646.618 271.761)" fill="#ddd"/>
      <path id="Trazado_3222" data-name="Trazado 3222" d="M1993.211-376.263a3.475,3.475,0,0,0-2.473-1.026h-2a3.46,3.46,0,0,0-2.081.695,3.459,3.459,0,0,0-1.253,1.8l-.095.32.26.209a4.45,4.45,0,0,1,1.672,3.469v2.5h6.992v-5.492A3.473,3.473,0,0,0,1993.211-376.263Zm-6.745,1.458a2.515,2.515,0,0,1,2.273-1.488h2a2.484,2.484,0,0,1,1.768.734,2.485,2.485,0,0,1,.731,1.769v4.5h-5v-1.5A5.468,5.468,0,0,0,1986.467-374.805Z" transform="translate(-1969.254 392.308)" fill="#ddd"/>
      <path id="Trazado_3223" data-name="Trazado 3223" d="M1824.6-312.286a3.344,3.344,0,0,0-2.523-1.705h-2a3.461,3.461,0,0,0-2.081.695,3.46,3.46,0,0,0-1.253,1.8l-.095.32.26.209a4.45,4.45,0,0,1,1.672,3.469v2.5h6.992v-5.6l-.043-.1A9.959,9.959,0,0,0,1824.6-312.286Zm-6.794.779a2.515,2.515,0,0,1,2.274-1.488h2c1,0,2.067,1.693,2.5,2.61V-306h-5v-1.5A5.469,5.469,0,0,0,1817.811-311.507Z" transform="translate(-1808.593 332.011)" fill="#ddd"/>
      <path id="Trazado_3224" data-name="Trazado 3224" d="M1667.706-415.9a3.5,3.5,0,0,0,3.5,3.5,3.5,3.5,0,0,0,3.5-3.5,3.5,3.5,0,0,0-3.5-3.5A3.5,3.5,0,0,0,1667.706-415.9Zm6,0a2.5,2.5,0,0,1-2.5,2.5,2.5,2.5,0,0,1-2.5-2.5,2.5,2.5,0,0,1,2.5-2.5A2.5,2.5,0,0,1,1673.7-415.9Z" transform="translate(-1666.706 432.422)" fill="#ddd"/>
      <path id="Trazado_3225" data-name="Trazado 3225" d="M2005.143-530.013a3.5,3.5,0,0,0,3.5-3.5,3.5,3.5,0,0,0-3.5-3.5,3.5,3.5,0,0,0-3.5,3.5A3.5,3.5,0,0,0,2005.143-530.013Zm-2.5-3.5a2.5,2.5,0,0,1,2.5-2.5,2.5,2.5,0,0,1,2.5,2.5,2.5,2.5,0,0,1-2.5,2.5A2.5,2.5,0,0,1,2002.642-533.509Z" transform="translate(-1984.817 544.453)" fill="#ddd"/>
      <path id="Trazado_3226" data-name="Trazado 3226" d="M1839.791-475.655a3.5,3.5,0,0,0,3.5-3.5,3.5,3.5,0,0,0-3.5-3.5,3.5,3.5,0,0,0-3.5,3.5A3.5,3.5,0,0,0,1839.791-475.655Zm-2.5-3.5a2.5,2.5,0,0,1,2.5-2.5,2.5,2.5,0,0,1,2.5,2.5,2.5,2.5,0,0,1-2.5,2.5A2.5,2.5,0,0,1,1837.29-479.151Z" transform="translate(-1827.303 492.672)" fill="#ddd"/>
      <path id="Trazado_3227" data-name="Trazado 3227" d="M1823.6-689.127h-2.7v-5H1817.9v5h-2.7l4.2,4.2Zm-4.7,1v-5h1v5h1.295l-1.8,1.8-1.8-1.8Z" transform="translate(-1807.211 694.124)" fill="#ddd"/>
    </g>
  </g>
</svg>
