<svg xmlns="http://www.w3.org/2000/svg" width="49.971" height="49.97" viewBox="0 0 49.971 49.97">
  <g id="Grupo_5026" data-name="Grupo 5026" transform="translate(20154.086 11420.335)">
    <ellipse id="Elipse_817" data-name="Elipse 817" cx="24.985" cy="24.985" rx="24.985" ry="24.985" transform="translate(-20154.086 -11420.335)" fill="#ddd"/>
    <g id="Grupo_5013" data-name="Grupo 5013" transform="translate(-20145.318 -11410.153)">
      <g id="Grupo_5012" data-name="Grupo 5012">
        <path id="Trazado_3156" data-name="Trazado 3156" d="M-4125-2222.563h-5.236v5.373h-.948v-6.321H-4125Zm26.252,5.308h-.948v-5.236h-5.374v-.948h6.322Z" transform="translate(4131.179 2223.511)" fill="#ddd"/>
      </g>
      <path id="Trazado_3157" data-name="Trazado 3157" d="M-4131.179-2217.19h.948v-5.373H-4125v-.948h-6.184Z" transform="translate(4131.179 2223.511)" fill="#508848"/>
      <rect id="Rect치ngulo_1773" data-name="Rect치ngulo 1773" width="1.945" height="0.948" transform="translate(26.252 28.4)" fill="#508848"/>
      <path id="Trazado_3158" data-name="Trazado 3158" d="M-3507.1-1731.439v-6.322h-.948v5.374h-2.047v.948Z" transform="translate(3539.535 1760.788)" fill="#508848"/>
      <path id="Trazado_3159" data-name="Trazado 3159" d="M-3580.278-2221.044h5.374v5.236h.948v-6.184h-6.322Z" transform="translate(3606.393 2222.064)" fill="#508848"/>
      <path id="Trazado_3160" data-name="Trazado 3160" d="M-4130.142-1731.073v-5.236h-.948v6.184h2.991v-.948Z" transform="translate(4131.093 1759.404)" fill="#508848"/>
      <rect id="Rect치ngulo_1774" data-name="Rect치ngulo 1774" width="2.087" height="0.948" transform="translate(4.239 28.331)" fill="#508848"/>
      <path id="Trazado_3161" data-name="Trazado 3161" d="M-3931.279-1700.464h-1.459v3.953a.732.732,0,0,0,.67.789.732.732,0,0,0,.789-.67.8.8,0,0,0,0-.118Z" transform="translate(3942.147 1725.258)" fill="#468246"/>
      <path id="Trazado_3162" data-name="Trazado 3162" d="M-4041.553-2098.742v-11.042h-.021a13.259,13.259,0,0,0-13.2-12.563,13.257,13.257,0,0,0-13.2,12.563h-.02v18.912c.455.293.817.419,1.244.72v-19.231l.018-.334a12.01,12.01,0,0,1,11.961-11.387,12.011,12.011,0,0,1,11.961,11.387l.018.34v19.239c.448-.312.812-.412,1.244-.734v-7.87Z" transform="translate(4070.995 2127.143)" fill="#4b8547"/>
      <path id="Trazado_3163" data-name="Trazado 3163" d="M-3981.692-2005.441a.711.711,0,0,0,.3.065.757.757,0,0,0,.7-.5A8.354,8.354,0,0,1-3973-2011.4a7.98,7.98,0,0,1,5.359,2.109.72.72,0,0,0,1.017-.039.705.705,0,0,0,.053-.064.87.87,0,0,0-.095-1.161,9.429,9.429,0,0,0-6.334-2.494,9.869,9.869,0,0,0-9.091,6.529A.849.849,0,0,0-3981.692-2005.441Z" transform="translate(3989.222 2023.025)" fill="#468246"/>
      <path id="Trazado_3164" data-name="Trazado 3164" d="M-4005.786-1934.707a.83.83,0,0,0-.718-.718h-3.8v-.822c0-4.085-3.064-7.405-6.831-7.405a6.315,6.315,0,0,0-2.276.422.839.839,0,0,0-.463,1.047.746.746,0,0,0,.923.512l.046-.015a4.941,4.941,0,0,1,1.77-.327,5.556,5.556,0,0,1,5.312,5.757v.829h-1.54c.014-.221.022-.426.022-.822a3.807,3.807,0,0,0-3.487-4.1,3.807,3.807,0,0,0-4.1,3.487,3.8,3.8,0,0,0,0,.615v.822h-1.518v-.822a6.013,6.013,0,0,1,1.124-3.541.868.868,0,0,0-.13-1.153.72.72,0,0,0-1.015.075.732.732,0,0,0-.05.066,7.721,7.721,0,0,0-1.446,4.553v.823h-3.8a.829.829,0,0,0-.718.927.829.829,0,0,0,.718.718h21.251A.83.83,0,0,0-4005.786-1934.707Zm-9.067-1.542c0,.4-.008.6-.022.822h-1.5v-.822a.761.761,0,0,0-.7-.815.761.761,0,0,0-.815.7.719.719,0,0,0,0,.112v.824h-1.518v-.822a2.381,2.381,0,0,1,2.278-2.47A2.381,2.381,0,0,1-4014.854-1936.249Z" transform="translate(4033.349 1956.918)" fill="#468246"/>
      <path id="Trazado_3165" data-name="Trazado 3165" d="M-3804.274-1615.842h-.016a.792.792,0,0,0-.759.8l-.017.912a.8.8,0,0,0,.747.84h.016a.792.792,0,0,0,.759-.805l.016-.912A.794.794,0,0,0-3804.274-1615.842Z" transform="translate(3820.526 1644.649)" fill="#468246"/>
      <path id="Trazado_3166" data-name="Trazado 3166" d="M-3675.495-1700.738h-1.518v4.112a.761.761,0,0,0,.7.815.762.762,0,0,0,.815-.7.784.784,0,0,0,0-.112Z" transform="translate(3698.544 1725.519)" fill="#468246"/>
      <path id="Trazado_3167" data-name="Trazado 3167" d="M-3739.547-1700.738h-1.517v5.757a.761.761,0,0,0,.7.82.761.761,0,0,0,.82-.7.738.738,0,0,0,0-.123Z" transform="translate(3759.56 1725.519)" fill="#468246"/>
      <path id="Trazado_3168" data-name="Trazado 3168" d="M-3867.633-1700.738h-1.518v5.757a.761.761,0,0,0,.7.82.761.761,0,0,0,.821-.7.861.861,0,0,0,0-.123Z" transform="translate(3881.574 1725.519)" fill="#468246"/>
      <path id="Trazado_3169" data-name="Trazado 3169" d="M-3804.4-1698.411a.761.761,0,0,0,.815-.7.717.717,0,0,0,0-.112v-1.512h-1.518v1.512A.761.761,0,0,0-3804.4-1698.411Z" transform="translate(3820.559 1725.519)" fill="#468246"/>
    </g>
  </g>
</svg>
