<svg xmlns="http://www.w3.org/2000/svg" width="49.971" height="49.97" viewBox="0 0 49.971 49.97">
  <g id="Grupo_5037" data-name="Grupo 5037" transform="translate(20223 11345.843)">
    <ellipse id="Elipse_821" data-name="Elipse 821" cx="24.985" cy="24.985" rx="24.985" ry="24.985" transform="translate(-20223 -11345.843)" fill="#464646"/>
    <g id="Grupo_5018" data-name="Grupo 5018" transform="translate(-20211.238 -11331.013)">
      <path id="Trazado_3196" data-name="Trazado 3196" d="M-5516.509,113.161c-.362-.255-.677-.385-1.042-.6Q-5517.037,112.874-5516.509,113.161Z" transform="translate(5517.752 -80.966)" fill="#ddd"/>
      <path id="Trazado_3197" data-name="Trazado 3197" d="M-4987.132,118.205c-.152.079-.306.159-.47.264Q-4987.365,118.339-4987.132,118.205Z" transform="translate(5012.925 -86.339)" fill="#ddd"/>
      <path id="Trazado_3198" data-name="Trazado 3198" d="M-5385.081-132.131h-1.459v3.953a.732.732,0,0,0,.67.789.732.732,0,0,0,.789-.67.682.682,0,0,0,0-.118Z" transform="translate(5392.955 152.13)" fill="#ddd"/>
      <path id="Trazado_3199" data-name="Trazado 3199" d="M-5495.376-541.451a13.259,13.259,0,0,0-13.2-12.563,13.258,13.258,0,0,0-13.2,12.563h-.02v18.912h0c.069.045.136.085.2.123.364.212.68.341,1.041.6h0v-19.231l.018-.334a12.01,12.01,0,0,1,11.961-11.386,12.01,12.01,0,0,1,11.961,11.386l.018.34V-521.8c.041-.028.081-.055.121-.08.164-.1.318-.185.47-.264a4.416,4.416,0,0,0,.654-.39h0v-18.912Z" transform="translate(5521.803 554.014)" fill="#ddd"/>
      <path id="Trazado_3200" data-name="Trazado 3200" d="M-5435.494-437.108a.711.711,0,0,0,.3.066.758.758,0,0,0,.7-.5,8.354,8.354,0,0,1,7.692-5.526,7.981,7.981,0,0,1,5.359,2.109.72.72,0,0,0,1.017-.039.721.721,0,0,0,.053-.064.871.871,0,0,0-.095-1.161,9.429,9.429,0,0,0-6.334-2.494,9.869,9.869,0,0,0-9.091,6.529A.849.849,0,0,0-5435.494-437.108Z" transform="translate(5440.03 449.896)" fill="#ddd"/>
      <path id="Trazado_3201" data-name="Trazado 3201" d="M-5460.308-367.092h-3.8v-.822c0-4.085-3.064-7.405-6.831-7.405a6.317,6.317,0,0,0-2.275.422.839.839,0,0,0-.462,1.047.746.746,0,0,0,.923.512l.045-.015a4.936,4.936,0,0,1,1.77-.327,5.556,5.556,0,0,1,5.313,5.758v.829h-1.54c.014-.221.022-.426.022-.822a3.807,3.807,0,0,0-3.487-4.1,3.808,3.808,0,0,0-4.1,3.487,3.8,3.8,0,0,0,0,.615v.822h-1.517v-.822a6.005,6.005,0,0,1,1.123-3.541.868.868,0,0,0-.13-1.153.719.719,0,0,0-1.015.075.737.737,0,0,0-.051.066,7.725,7.725,0,0,0-1.445,4.553v.823h-3.8a.83.83,0,0,0-.718.927.83.83,0,0,0,.718.718h21.251a.829.829,0,0,0,.718-.927A.829.829,0,0,0-5460.308-367.092Zm-8.348-.824c0,.4-.008.6-.023.822h-1.5v-.822a.762.762,0,0,0-.7-.815.762.762,0,0,0-.815.7.861.861,0,0,0,0,.112v.824h-1.518v-.822a2.381,2.381,0,0,1,2.278-2.47A2.382,2.382,0,0,1-5468.656-367.916Z" transform="translate(5484.156 383.79)" fill="#ddd"/>
      <path id="Trazado_3202" data-name="Trazado 3202" d="M-5258.076-47.509h-.016a.792.792,0,0,0-.759.8l-.017.912a.8.8,0,0,0,.747.84h.017a.792.792,0,0,0,.759-.805l.016-.912A.794.794,0,0,0-5258.076-47.509Z" transform="translate(5271.333 71.52)" fill="#ddd"/>
      <path id="Trazado_3203" data-name="Trazado 3203" d="M-5129.3-132.406h-1.518v4.112a.761.761,0,0,0,.7.815.761.761,0,0,0,.815-.7.718.718,0,0,0,0-.112Z" transform="translate(5149.351 152.392)" fill="#ddd"/>
      <path id="Trazado_3204" data-name="Trazado 3204" d="M-5193.35-132.406h-1.518v5.758a.761.761,0,0,0,.7.82.761.761,0,0,0,.82-.7.739.739,0,0,0,0-.123Z" transform="translate(5210.368 152.392)" fill="#ddd"/>
      <path id="Trazado_3205" data-name="Trazado 3205" d="M-5321.436-132.406h-1.518v5.758a.761.761,0,0,0,.7.82.762.762,0,0,0,.82-.7.739.739,0,0,0,0-.123Z" transform="translate(5332.382 152.392)" fill="#ddd"/>
      <path id="Trazado_3206" data-name="Trazado 3206" d="M-5258.9-132.406v1.512a.762.762,0,0,0,.7.815.761.761,0,0,0,.815-.7.862.862,0,0,0,0-.112v-1.512Z" transform="translate(5271.367 152.392)" fill="#ddd"/>
    </g>
  </g>
</svg>
