<svg xmlns="http://www.w3.org/2000/svg" width="49.971" height="49.97" viewBox="0 0 49.971 49.97">
  <g id="Grupo_5034" data-name="Grupo 5034" transform="translate(20016.016 11345.008)">
    <ellipse id="Elipse_824" data-name="Elipse 824" cx="24.985" cy="24.985" rx="24.985" ry="24.985" transform="translate(-20016.016 -11345.008)" fill="#464646"/>
    <g id="Grupo_5015" data-name="Grupo 5015" transform="translate(-20007.586 -11337.012)">
      <path id="Trazado_3178" data-name="Trazado 3178" d="M-788.6-224.7l-1.226,0v3.321a.617.617,0,0,0,.546.679.616.616,0,0,0,.679-.546.605.605,0,0,0,0-.133Z" transform="translate(810.49 246.306)" fill="#ddd"/>
      <path id="Trazado_3179" data-name="Trazado 3179" d="M-892.613-156.122h-.018a.639.639,0,0,0-.616.649l-.013.736a.643.643,0,0,0,.6.678h.017a.639.639,0,0,0,.616-.65l.013-.737A.641.641,0,0,0-892.613-156.122Z" transform="translate(909.021 180.983)" fill="#ddd"/>
      <path id="Trazado_3180" data-name="Trazado 3180" d="M-1064.748-420.751a5.1,5.1,0,0,0-1.837.341.677.677,0,0,0-.374.846.6.6,0,0,0,.74.418l.042-.013a3.985,3.985,0,0,1,1.429-.266,4.486,4.486,0,0,1,4.289,4.649v.664h-1.243c.011-.179.018-.344.018-.664a3.074,3.074,0,0,0-2.813-3.315,3.074,3.074,0,0,0-3.315,2.813,3.108,3.108,0,0,0,0,.5v.664h-1.223v-.664a4.855,4.855,0,0,1,.907-2.858.7.7,0,0,0-.1-.931.581.581,0,0,0-.82.061.58.58,0,0,0-.041.053,6.233,6.233,0,0,0-1.167,3.676v.664h-3.066a.667.667,0,0,0-.606.723.667.667,0,0,0,.606.606h17.157a.667.667,0,0,0,.606-.723.667.667,0,0,0-.606-.606h-3.065v-.664A5.766,5.766,0,0,0-1064.748-420.751Zm1.838,5.976c0,.32-.007.485-.018.664h-1.2v-.664a.616.616,0,0,0-.546-.679.616.616,0,0,0-.679.546.605.605,0,0,0,0,.133v.664h-1.225v-.664a1.922,1.922,0,0,1,1.834-2v0A1.922,1.922,0,0,1-1062.91-414.775Z" transform="translate(1081.127 433.067)" fill="#ddd"/>
      <path id="Trazado_3181" data-name="Trazado 3181" d="M-893.226-224.693v1.221a.616.616,0,0,0,.546.679.617.617,0,0,0,.679-.546.621.621,0,0,0,0-.133V-224.7Z" transform="translate(908.992 246.306)" fill="#ddd"/>
      <path id="Trazado_3182" data-name="Trazado 3182" d="M-1028.727-476.842a7.969,7.969,0,0,0-7.34,5.271.685.685,0,0,0,.326.87.573.573,0,0,0,.239.053.617.617,0,0,0,.564-.4,6.746,6.746,0,0,1,6.21-4.466,6.443,6.443,0,0,1,4.326,1.7.582.582,0,0,0,.822-.032.565.565,0,0,0,.042-.051.7.7,0,0,0-.076-.935A7.612,7.612,0,0,0-1028.727-476.842Z" transform="translate(1045.106 486.499)" fill="#ddd"/>
      <path id="Trazado_3183" data-name="Trazado 3183" d="M-840.288-224.7l-1.226,0v4.645a.616.616,0,0,0,.546.679.616.616,0,0,0,.679-.546.613.613,0,0,0,0-.133Z" transform="translate(859.73 246.306)" fill="#ddd"/>
      <path id="Trazado_3184" data-name="Trazado 3184" d="M-995.4-224.7l-1.226,0v3.321a.617.617,0,0,0,.546.679.616.616,0,0,0,.679-.546.621.621,0,0,0,0-.133Z" transform="translate(1007.492 246.306)" fill="#ddd"/>
      <path id="Trazado_3185" data-name="Trazado 3185" d="M-943.691-224.7l-1.226,0v4.645a.616.616,0,0,0,.546.679.616.616,0,0,0,.679-.546.613.613,0,0,0,0-.133Z" transform="translate(958.231 246.306)" fill="#ddd"/>
      <path id="Trazado_3186" data-name="Trazado 3186" d="M-1203.456-678.359c-2.311-1.191-3.869-2.211-5.715-2.211s-3.4,1.02-5.714,2.211a39.69,39.69,0,0,1-10.253,3.692l-.589.141v.588c0,11.529,4.042,19.235,8.09,24.011a26.756,26.756,0,0,0,8.161,6.678l.329.164.329-.164s16.205-8.37,16.205-30.689v-.588l-.588-.141A39.691,39.691,0,0,1-1203.456-678.359Zm-5.738,33.554a23.883,23.883,0,0,1-7.314-6.091c-3.784-4.46-7.53-11.641-7.668-22.482a42.377,42.377,0,0,0,9.972-3.645c2.36-1.209,3.8-2.041,5.032-2.041s2.671.832,5.034,2.046a42.38,42.38,0,0,0,9.971,3.641C-1194.443-652.971-1208.227-645.316-1209.194-644.8Z" transform="translate(1225.728 680.57)" fill="#ddd"/>
    </g>
  </g>
</svg>
