<svg xmlns="http://www.w3.org/2000/svg" width="49.971" height="49.97" viewBox="0 0 49.971 49.97">
  <g id="Grupo_5035" data-name="Grupo 5035" transform="translate(20084.777 11346.78)">
    <ellipse id="Elipse_823" data-name="Elipse 823" cx="24.985" cy="24.985" rx="24.985" ry="24.985" transform="translate(-20084.777 -11346.78)" fill="#464646"/>
    <g id="Grupo_5014" data-name="Grupo 5014" transform="translate(-20074.531 -11335.648)">
      <path id="Trazado_3170" data-name="Trazado 3170" d="M-2262.851-247.218l-1.966,0v7.458a.986.986,0,0,0,.905,1.061.987.987,0,0,0,1.061-.905.976.976,0,0,0,0-.156Z" transform="translate(2282.506 266.396)" fill="#ddd"/>
      <path id="Trazado_3171" data-name="Trazado 3171" d="M-2179.909-247.218l-1.966,0v5.327a.986.986,0,0,0,.905,1.061.986.986,0,0,0,1.061-.905.976.976,0,0,0,0-.156Z" transform="translate(2203.496 266.396)" fill="#ddd"/>
      <path id="Trazado_3172" data-name="Trazado 3172" d="M-2609.4-551.237h-4.915V-552.3c0-5.288-3.97-9.59-8.849-9.59a8.184,8.184,0,0,0-2.948.548,1.087,1.087,0,0,0-.6,1.356.964.964,0,0,0,1.186.671l.068-.022a6.394,6.394,0,0,1,2.292-.423,7.192,7.192,0,0,1,6.884,7.459v1.065h-2c.019-.287.029-.552.029-1.065a4.931,4.931,0,0,0-4.52-5.312,4.932,4.932,0,0,0-5.312,4.52,4.93,4.93,0,0,0,0,.792v1.065h-1.966V-552.3a7.788,7.788,0,0,1,1.456-4.586,1.13,1.13,0,0,0-.168-1.494.933.933,0,0,0-1.316.1.946.946,0,0,0-.065.085,10,10,0,0,0-1.872,5.9v1.064h-4.916a1.069,1.069,0,0,0-.972,1.159,1.069,1.069,0,0,0,.972.972h27.527a1.07,1.07,0,0,0,.972-1.159A1.07,1.07,0,0,0-2609.4-551.237Zm-10.814-1.064c0,.514-.011.778-.029,1.065h-1.937V-552.3a.986.986,0,0,0-.905-1.061.987.987,0,0,0-1.061.905,1.037,1.037,0,0,0,0,.156v1.064h-1.966V-552.3a3.082,3.082,0,0,1,2.948-3.2A3.082,3.082,0,0,1-2620.212-552.3Z" transform="translate(2637.901 566.153)" fill="#ddd"/>
      <path id="Trazado_3173" data-name="Trazado 3173" d="M-2346.734-137.183h-.021a1.027,1.027,0,0,0-.983,1.042l-.022,1.18a1.027,1.027,0,0,0,.962,1.088h.022a1.027,1.027,0,0,0,.983-1.043l.021-1.181A1.028,1.028,0,0,0-2346.734-137.183Z" transform="translate(2361.515 161.577)" fill="#ddd"/>
      <path id="Trazado_3174" data-name="Trazado 3174" d="M-2347.783-247.215v1.958a.986.986,0,0,0,.905,1.061.986.986,0,0,0,1.061-.905.976.976,0,0,0,0-.156v-1.961Z" transform="translate(2361.538 266.396)" fill="#ddd"/>
      <path id="Trazado_3175" data-name="Trazado 3175" d="M-2576.49-641.941a.921.921,0,0,0,.384.085.98.98,0,0,0,.9-.649,10.823,10.823,0,0,1,9.966-7.158,10.337,10.337,0,0,1,6.941,2.732.933.933,0,0,0,1.318-.051.971.971,0,0,0,.068-.082,1.13,1.13,0,0,0-.123-1.5,12.214,12.214,0,0,0-8.206-3.227,12.788,12.788,0,0,0-11.776,8.458A1.1,1.1,0,0,0-2576.49-641.941Z" transform="translate(2579.976 651.792)" fill="#ddd"/>
      <path id="Trazado_3176" data-name="Trazado 3176" d="M-2511.725-247.218l-1.966,0v5.327a.986.986,0,0,0,.905,1.061.986.986,0,0,0,1.061-.905.976.976,0,0,0,0-.156Z" transform="translate(2519.583 266.396)" fill="#ddd"/>
      <path id="Trazado_3177" data-name="Trazado 3177" d="M-2428.76-247.218l-1.966,0v7.458a.986.986,0,0,0,.906,1.061.986.986,0,0,0,1.061-.905.976.976,0,0,0,0-.156Z" transform="translate(2440.551 266.396)" fill="#ddd"/>
    </g>
  </g>
</svg>
