<svg xmlns="http://www.w3.org/2000/svg" width="45.061" height="45.061" viewBox="0 0 45.061 45.061">
  <g id="Grupo_5030" data-name="Grupo 5030" transform="translate(19879.58 11418.965)">
    <g id="Grupo_5006" data-name="Grupo 5006" transform="translate(-19879.58 -11418.965)">
      <g id="Grupo_4883" data-name="Grupo 4883" transform="translate(0 0)">
        <path id="Trazado_2997" data-name="Trazado 2997" d="M1497.187-2409.394a22.53,22.53,0,0,1,22.53,22.53,22.53,22.53,0,0,1-22.53,22.53,22.53,22.53,0,0,1-22.53-22.53,22.53,22.53,0,0,1,22.53-22.53Z" transform="translate(-1474.657 2409.394)" fill="#ddd"/>
      </g>
    </g>
    <g id="Grupo_5022" data-name="Grupo 5022" transform="translate(-19869.539 -11411.438)">
      <path id="Trazado_3228" data-name="Trazado 3228" d="M1691.958-1807.25h-2a3.5,3.5,0,0,0-3.5,3.5v5.495h8.99v-5.495A3.5,3.5,0,0,0,1691.958-1807.25Zm-4.5,7.995v-4.5a2.5,2.5,0,0,1,2.5-2.5h2a2.5,2.5,0,0,1,2.5,2.5v4.5Z" transform="translate(-1686.463 1828.268)" fill="#377743"/>
      <path id="Trazado_3229" data-name="Trazado 3229" d="M2033.057-1932.77a3.475,3.475,0,0,0-2.473-1.026h-2a3.46,3.46,0,0,0-2.081.695,3.459,3.459,0,0,0-1.253,1.8l-.095.321.26.209a4.45,4.45,0,0,1,1.672,3.469v2.5h6.992v-5.492A3.473,3.473,0,0,0,2033.057-1932.77Zm-6.745,1.458a2.515,2.515,0,0,1,2.273-1.488h2a2.485,2.485,0,0,1,1.768.734,2.484,2.484,0,0,1,.731,1.769v4.5h-5v-1.5A5.469,5.469,0,0,0,2026.313-1931.312Z" transform="translate(-2009.1 1948.815)" fill="#377743"/>
      <path id="Trazado_3230" data-name="Trazado 3230" d="M1864.451-1868.793a3.344,3.344,0,0,0-2.523-1.705h-2a3.46,3.46,0,0,0-2.081.695,3.46,3.46,0,0,0-1.254,1.8l-.095.32.26.209a4.45,4.45,0,0,1,1.672,3.469v2.5h6.992v-5.6l-.043-.1A9.968,9.968,0,0,0,1864.451-1868.793Zm-6.794.779a2.515,2.515,0,0,1,2.274-1.488h2c1,0,2.068,1.693,2.5,2.61v4.39h-5v-1.5A5.469,5.469,0,0,0,1857.657-1868.014Z" transform="translate(-1848.439 1888.518)" fill="#377743"/>
      <path id="Trazado_3231" data-name="Trazado 3231" d="M1707.551-1972.41a3.5,3.5,0,0,0,3.5,3.5,3.5,3.5,0,0,0,3.5-3.5,3.5,3.5,0,0,0-3.5-3.5A3.5,3.5,0,0,0,1707.551-1972.41Zm6,0a2.5,2.5,0,0,1-2.5,2.5,2.5,2.5,0,0,1-2.5-2.5,2.5,2.5,0,0,1,2.5-2.5A2.5,2.5,0,0,1,1713.547-1972.41Z" transform="translate(-1706.551 1988.929)" fill="#377743"/>
      <path id="Trazado_3232" data-name="Trazado 3232" d="M2044.989-2086.52a3.5,3.5,0,0,0,3.5-3.5,3.5,3.5,0,0,0-3.5-3.5,3.5,3.5,0,0,0-3.5,3.5A3.5,3.5,0,0,0,2044.989-2086.52Zm-2.5-3.5a2.5,2.5,0,0,1,2.5-2.5,2.5,2.5,0,0,1,2.5,2.5,2.5,2.5,0,0,1-2.5,2.5A2.5,2.5,0,0,1,2042.489-2090.016Z" transform="translate(-2024.663 2100.96)" fill="#377743"/>
      <path id="Trazado_3233" data-name="Trazado 3233" d="M1879.636-2032.162a3.5,3.5,0,0,0,3.5-3.5,3.5,3.5,0,0,0-3.5-3.5,3.5,3.5,0,0,0-3.5,3.5A3.5,3.5,0,0,0,1879.636-2032.162Zm-2.5-3.5a2.5,2.5,0,0,1,2.5-2.5,2.5,2.5,0,0,1,2.5,2.5,2.5,2.5,0,0,1-2.5,2.5A2.5,2.5,0,0,1,1877.135-2035.658Z" transform="translate(-1867.148 2049.179)" fill="#377743"/>
      <path id="Trazado_3234" data-name="Trazado 3234" d="M1863.446-2245.634h-2.7v-5h-2.994v5h-2.7l4.2,4.2Zm-4.7,1v-5h1v5h1.295l-1.8,1.8-1.8-1.8Z" transform="translate(-1847.055 2250.631)" fill="#377743"/>
    </g>
  </g>
</svg>
