<svg xmlns="http://www.w3.org/2000/svg" width="49.971" height="49.97" viewBox="0 0 49.971 49.97">
  <g id="Grupo_5025" data-name="Grupo 5025" transform="translate(20223 11420.335)">
    <ellipse id="Elipse_816" data-name="Elipse 816" cx="24.985" cy="24.985" rx="24.985" ry="24.985" transform="translate(-20223 -11420.335)" fill="#ddd"/>
    <g id="Grupo_5011" data-name="Grupo 5011" transform="translate(-20211.238 -11405.505)">
      <path id="Trazado_3145" data-name="Trazado 3145" d="M-5516.509-1458.274c-.362-.255-.677-.385-1.042-.6Q-5517.037-1458.561-5516.509-1458.274Z" transform="translate(5517.752 1490.469)" fill="#ddd"/>
      <path id="Trazado_3146" data-name="Trazado 3146" d="M-4987.132-1453.229c-.152.079-.306.159-.47.264Q-4987.365-1453.095-4987.132-1453.229Z" transform="translate(5012.925 1485.095)" fill="#ddd"/>
      <path id="Trazado_3147" data-name="Trazado 3147" d="M-5385.081-1703.565h-1.459v3.953a.732.732,0,0,0,.67.789.732.732,0,0,0,.789-.67.682.682,0,0,0,0-.118Z" transform="translate(5392.955 1723.564)" fill="#468246"/>
      <path id="Trazado_3148" data-name="Trazado 3148" d="M-5495.376-2112.885a13.259,13.259,0,0,0-13.2-12.562,13.258,13.258,0,0,0-13.2,12.563h-.02v18.912h0c.069.045.136.085.2.123.364.212.68.341,1.041.6h0v-19.231l.018-.334a12.01,12.01,0,0,1,11.961-11.386,12.01,12.01,0,0,1,11.961,11.386l.018.34v19.239c.041-.028.081-.054.121-.08.164-.1.318-.185.47-.264a4.416,4.416,0,0,0,.654-.39h0v-18.912Z" transform="translate(5521.803 2125.448)" fill="#4b8547"/>
      <path id="Trazado_3149" data-name="Trazado 3149" d="M-5435.494-2008.543a.709.709,0,0,0,.3.065.758.758,0,0,0,.7-.5,8.354,8.354,0,0,1,7.692-5.526,7.98,7.98,0,0,1,5.359,2.109.719.719,0,0,0,1.017-.039.73.73,0,0,0,.053-.064.871.871,0,0,0-.095-1.161,9.43,9.43,0,0,0-6.334-2.494,9.87,9.87,0,0,0-9.091,6.529A.849.849,0,0,0-5435.494-2008.543Z" transform="translate(5440.03 2021.331)" fill="#468246"/>
      <path id="Trazado_3150" data-name="Trazado 3150" d="M-5460.308-1938.526h-3.8v-.822c0-4.085-3.064-7.405-6.831-7.405a6.317,6.317,0,0,0-2.275.422.839.839,0,0,0-.462,1.047.746.746,0,0,0,.923.512l.045-.015a4.938,4.938,0,0,1,1.77-.327,5.556,5.556,0,0,1,5.313,5.758v.829h-1.54c.014-.221.022-.426.022-.822a3.807,3.807,0,0,0-3.487-4.1,3.807,3.807,0,0,0-4.1,3.487,3.8,3.8,0,0,0,0,.615v.822h-1.517v-.822a6,6,0,0,1,1.123-3.541.868.868,0,0,0-.13-1.153.719.719,0,0,0-1.015.075.718.718,0,0,0-.051.066,7.725,7.725,0,0,0-1.445,4.553v.823h-3.8a.83.83,0,0,0-.718.927.83.83,0,0,0,.718.718h21.251a.829.829,0,0,0,.718-.927A.829.829,0,0,0-5460.308-1938.526Zm-8.348-.824c0,.4-.008.6-.023.822h-1.5v-.822a.762.762,0,0,0-.7-.815.762.762,0,0,0-.815.7.86.86,0,0,0,0,.112v.824h-1.518v-.822a2.381,2.381,0,0,1,2.278-2.47A2.382,2.382,0,0,1-5468.656-1939.35Z" transform="translate(5484.156 1955.224)" fill="#468246"/>
      <path id="Trazado_3151" data-name="Trazado 3151" d="M-5258.076-1618.944h-.016a.792.792,0,0,0-.759.8l-.017.912a.8.8,0,0,0,.747.84h.017a.792.792,0,0,0,.759-.805l.016-.912A.794.794,0,0,0-5258.076-1618.944Z" transform="translate(5271.333 1642.955)" fill="#468246"/>
      <path id="Trazado_3152" data-name="Trazado 3152" d="M-5129.3-1703.84h-1.518v4.112a.761.761,0,0,0,.7.815.761.761,0,0,0,.815-.7.715.715,0,0,0,0-.112Z" transform="translate(5149.351 1723.826)" fill="#468246"/>
      <path id="Trazado_3153" data-name="Trazado 3153" d="M-5193.35-1703.84h-1.518v5.758a.761.761,0,0,0,.7.82.761.761,0,0,0,.82-.7.738.738,0,0,0,0-.123Z" transform="translate(5210.368 1723.826)" fill="#468246"/>
      <path id="Trazado_3154" data-name="Trazado 3154" d="M-5321.436-1703.84h-1.518v5.758a.761.761,0,0,0,.7.82.762.762,0,0,0,.82-.7.738.738,0,0,0,0-.123Z" transform="translate(5332.382 1723.826)" fill="#468246"/>
      <path id="Trazado_3155" data-name="Trazado 3155" d="M-5258.9-1703.84v1.512a.762.762,0,0,0,.7.815.762.762,0,0,0,.815-.7.86.86,0,0,0,0-.112v-1.512Z" transform="translate(5271.367 1723.826)" fill="#468246"/>
    </g>
  </g>
</svg>
