<svg xmlns="http://www.w3.org/2000/svg" width="49.971" height="49.97" viewBox="0 0 49.971 49.97">
  <g id="Grupo_5029" data-name="Grupo 5029" transform="translate(19947.473 11420.669)">
    <g id="Grupo_5010" data-name="Grupo 5010" transform="translate(-19947.473 -11420.669)">
      <ellipse id="Elipse_820" data-name="Elipse 820" cx="24.985" cy="24.985" rx="24.985" ry="24.985" transform="translate(0 0)" fill="#ddd"/>
      <g id="Grupo_5009" data-name="Grupo 5009" transform="translate(10.276 10.524)">
        <path id="Trazado_3136" data-name="Trazado 3136" d="M689.93-1915.363l-.968-2.98-1.1.358.968,2.98a.582.582,0,0,0,.7.434.582.582,0,0,0,.434-.7A.588.588,0,0,0,689.93-1915.363Z" transform="translate(-667.54 1932.801)" fill="#377743"/>
        <path id="Trazado_3137" data-name="Trazado 3137" d="M643.858-1899.062l-1.358-4.178-1.1.358,1.358,4.178a.58.58,0,0,0,.7.425.58.58,0,0,0,.425-.7A.6.6,0,0,0,643.858-1899.062Z" transform="translate(-623.282 1918.414)" fill="#377743"/>
        <path id="Trazado_3138" data-name="Trazado 3138" d="M619.605-1822.957a.605.605,0,0,0-.737-.434l-.012,0a.6.6,0,0,0-.361.765l.2.665a.608.608,0,0,0,.738.434l.012,0a.6.6,0,0,0,.361-.765Z" transform="translate(-601.432 1842.368)" fill="#377743"/>
        <path id="Trazado_3139" data-name="Trazado 3139" d="M550.917-1868.864l-1.358-4.178-1.1.358,1.358,4.178a.58.58,0,0,0,.7.425.58.58,0,0,0,.425-.7A.59.59,0,0,0,550.917-1868.864Z" transform="translate(-534.747 1889.647)" fill="#377743"/>
        <path id="Trazado_3140" data-name="Trazado 3140" d="M435.133-2061.315l-2.753.895-.194-.6a5.445,5.445,0,0,0-6.7-3.761,4.814,4.814,0,0,0-1.552.844.64.64,0,0,0-.089.869.568.568,0,0,0,.787.16l.034-.024a3.769,3.769,0,0,1,1.207-.655,4.239,4.239,0,0,1,5.213,2.925l.194.6-1.117.363c-.042-.164-.084-.315-.177-.6a3.028,3.028,0,0,0-3.724-2.09,3.028,3.028,0,0,0-1.784,3.88l.194.6-1.1.358-.194-.6a4.587,4.587,0,0,1-.019-2.835.663.663,0,0,0-.37-.806.55.55,0,0,0-.719.294.534.534,0,0,0-.021.06,5.892,5.892,0,0,0,.028,3.644l.194.6-2.753.895a.63.63,0,0,0-.339.824.63.63,0,0,0,.727.37l15.421-5.01a.63.63,0,0,0,.339-.824A.63.63,0,0,0,435.133-2061.315Zm-7.159,2.326-.194-.6a.582.582,0,0,0-.7-.433.581.581,0,0,0-.434.7.576.576,0,0,0,.03.093l.194.6-1.1.358-.194-.6a1.817,1.817,0,0,1,1.07-2.328,1.816,1.816,0,0,1,2.234,1.254c.093.287.136.438.177.6Z" transform="translate(-411.736 2072.487)" fill="#377743"/>
        <path id="Trazado_3141" data-name="Trazado 3141" d="M596.407-1886.955a.58.58,0,0,0-.03-.093l-.357-1.1-1.1.358.357,1.1a.582.582,0,0,0,.7.433A.582.582,0,0,0,596.407-1886.955Z" transform="translate(-579.005 1904.034)" fill="#377743"/>
        <path id="Trazado_3142" data-name="Trazado 3142" d="M426.624-2110.319a.542.542,0,0,0,.23-.022.577.577,0,0,0,.388-.528,6.375,6.375,0,0,1,4.282-5.82,6.091,6.091,0,0,1,4.386.266.549.549,0,0,0,.73-.268.568.568,0,0,0,.023-.058.664.664,0,0,0-.341-.818,7.19,7.19,0,0,0-5.184-.321,7.532,7.532,0,0,0-5.061,6.883A.647.647,0,0,0,426.624-2110.319Z" transform="translate(-418.166 2123.208)" fill="#377743"/>
        <path id="Trazado_3143" data-name="Trazado 3143" d="M503.077-1857.94l-1.1.358.968,2.98a.6.6,0,0,0,.745.418.6.6,0,0,0,.356-.776Z" transform="translate(-490.469 1875.261)" fill="#377743"/>
        <path id="Trazado_3144" data-name="Trazado 3144" d="M292.05-2201.715l-6.584-3.111a13.562,13.562,0,0,0-7.679-17.574,13.562,13.562,0,0,0-9.159-.264,13.577,13.577,0,0,0-8.742,17.1,13.577,13.577,0,0,0,17.1,8.742,13.579,13.579,0,0,0,7.251-5.588s4.941,2.478,6.539,3.169,1.95.152,2.245-.405S292.717-2201.379,292.05-2201.715Zm-15.87,2.292a10.862,10.862,0,0,1-13.686-6.974,10.841,10.841,0,0,1,6.934-13.674l.039-.013a10.862,10.862,0,0,1,13.686,6.974A10.862,10.862,0,0,1,276.18-2199.422Z" transform="translate(-259.225 2223.335)" fill="#377743"/>
      </g>
    </g>
  </g>
</svg>
