<svg xmlns="http://www.w3.org/2000/svg" width="49.971" height="49.97" viewBox="0 0 49.971 49.97">
  <g id="Grupo_5033" data-name="Grupo 5033" transform="translate(19947.473 11346.178)">
    <g id="Grupo_5032" data-name="Grupo 5032">
      <g id="Grupo_5017" data-name="Grupo 5017" transform="translate(-19947.473 -11346.178)">
        <ellipse id="Elipse_825" data-name="Elipse 825" cx="24.985" cy="24.985" rx="24.985" ry="24.985" transform="translate(0 0)" fill="#464646"/>
        <g id="Grupo_5016" data-name="Grupo 5016" transform="translate(10.276 10.524)">
          <path id="Trazado_3187" data-name="Trazado 3187" d="M689.93-343.928l-.968-2.98-1.1.358.968,2.98a.582.582,0,0,0,.7.434.582.582,0,0,0,.434-.7A.591.591,0,0,0,689.93-343.928Z" transform="translate(-667.54 361.366)" fill="#ddd"/>
          <path id="Trazado_3188" data-name="Trazado 3188" d="M643.858-327.628l-1.358-4.178-1.1.358,1.358,4.178a.58.58,0,0,0,.7.425.581.581,0,0,0,.425-.7A.592.592,0,0,0,643.858-327.628Z" transform="translate(-623.282 346.98)" fill="#ddd"/>
          <path id="Trazado_3189" data-name="Trazado 3189" d="M619.605-251.522a.605.605,0,0,0-.737-.433l-.012,0a.6.6,0,0,0-.361.765l.2.665a.608.608,0,0,0,.738.434l.012,0a.6.6,0,0,0,.361-.765Z" transform="translate(-601.432 270.933)" fill="#ddd"/>
          <path id="Trazado_3190" data-name="Trazado 3190" d="M550.917-297.43l-1.358-4.178-1.1.358,1.358,4.178a.58.58,0,0,0,.7.425.581.581,0,0,0,.425-.7A.59.59,0,0,0,550.917-297.43Z" transform="translate(-534.747 318.213)" fill="#ddd"/>
          <path id="Trazado_3191" data-name="Trazado 3191" d="M435.133-489.881l-2.753.895-.194-.6a5.445,5.445,0,0,0-6.7-3.762,4.821,4.821,0,0,0-1.552.843.64.64,0,0,0-.089.869.568.568,0,0,0,.787.16l.034-.024a3.766,3.766,0,0,1,1.207-.655,4.239,4.239,0,0,1,5.213,2.925l.194.6-1.117.363c-.042-.163-.084-.315-.177-.6a3.028,3.028,0,0,0-3.724-2.09,3.028,3.028,0,0,0-1.784,3.88l.194.6-1.1.358-.194-.6a4.587,4.587,0,0,1-.019-2.835.663.663,0,0,0-.37-.806.55.55,0,0,0-.719.294.542.542,0,0,0-.021.06,5.892,5.892,0,0,0,.028,3.644l.194.6-2.753.895a.63.63,0,0,0-.339.824.63.63,0,0,0,.727.37l15.421-5.01a.63.63,0,0,0,.339-.824A.63.63,0,0,0,435.133-489.881Zm-7.159,2.326-.194-.6a.582.582,0,0,0-.7-.434.582.582,0,0,0-.434.7.58.58,0,0,0,.03.093l.194.6-1.1.358-.194-.6a1.816,1.816,0,0,1,1.07-2.328,1.816,1.816,0,0,1,2.234,1.254c.093.287.136.438.177.6Z" transform="translate(-411.736 501.053)" fill="#ddd"/>
          <path id="Trazado_3192" data-name="Trazado 3192" d="M596.407-315.52a.576.576,0,0,0-.03-.093l-.357-1.1-1.1.358.357,1.1a.582.582,0,0,0,.7.434A.582.582,0,0,0,596.407-315.52Z" transform="translate(-579.005 332.599)" fill="#ddd"/>
          <path id="Trazado_3193" data-name="Trazado 3193" d="M426.624-538.885a.541.541,0,0,0,.23-.022.577.577,0,0,0,.388-.528,6.375,6.375,0,0,1,4.282-5.82,6.089,6.089,0,0,1,4.386.267.55.55,0,0,0,.73-.268.558.558,0,0,0,.023-.058.664.664,0,0,0-.341-.818,7.193,7.193,0,0,0-5.184-.321,7.533,7.533,0,0,0-5.061,6.883A.647.647,0,0,0,426.624-538.885Z" transform="translate(-418.166 551.774)" fill="#ddd"/>
          <path id="Trazado_3194" data-name="Trazado 3194" d="M503.077-286.505l-1.1.358.968,2.98a.6.6,0,0,0,.745.418.6.6,0,0,0,.356-.776Z" transform="translate(-490.469 303.826)" fill="#ddd"/>
          <path id="Trazado_3195" data-name="Trazado 3195" d="M292.05-630.28l-6.584-3.111a13.562,13.562,0,0,0-7.679-17.574,13.562,13.562,0,0,0-9.159-.265,13.577,13.577,0,0,0-8.742,17.1,13.577,13.577,0,0,0,17.1,8.742,13.577,13.577,0,0,0,7.251-5.588s4.941,2.478,6.539,3.169,1.95.152,2.245-.405S292.717-629.944,292.05-630.28Zm-15.87,2.292a10.862,10.862,0,0,1-13.686-6.974,10.841,10.841,0,0,1,6.934-13.674l.039-.013a10.862,10.862,0,0,1,13.686,6.974A10.861,10.861,0,0,1,276.18-627.988Z" transform="translate(-259.225 651.901)" fill="#ddd"/>
        </g>
      </g>
    </g>
  </g>
</svg>
