<svg xmlns="http://www.w3.org/2000/svg" width="49.971" height="49.97" viewBox="0 0 49.971 49.97">
  <g id="Grupo_5028" data-name="Grupo 5028" transform="translate(20016.016 11419.501)">
    <ellipse id="Elipse_819" data-name="Elipse 819" cx="24.985" cy="24.985" rx="24.985" ry="24.985" transform="translate(-20016.016 -11419.501)" fill="#ddd"/>
    <g id="Grupo_5008" data-name="Grupo 5008" transform="translate(-20007.586 -11411.504)">
      <path id="Trazado_3127" data-name="Trazado 3127" d="M-788.6-1796.13l-1.226,0v3.32a.617.617,0,0,0,.546.679.616.616,0,0,0,.679-.546.606.606,0,0,0,0-.133Z" transform="translate(810.49 1817.74)" fill="#377844"/>
      <path id="Trazado_3128" data-name="Trazado 3128" d="M-892.613-1727.556h-.018a.639.639,0,0,0-.616.649l-.013.736a.643.643,0,0,0,.6.678h.017a.639.639,0,0,0,.616-.65l.013-.737A.641.641,0,0,0-892.613-1727.556Z" transform="translate(909.021 1752.417)" fill="#377844"/>
      <path id="Trazado_3129" data-name="Trazado 3129" d="M-1064.748-1992.186a5.1,5.1,0,0,0-1.837.341.677.677,0,0,0-.374.845.6.6,0,0,0,.74.418l.042-.013a3.985,3.985,0,0,1,1.429-.266,4.486,4.486,0,0,1,4.289,4.649v.664h-1.243c.011-.179.018-.344.018-.664a3.074,3.074,0,0,0-2.813-3.315,3.074,3.074,0,0,0-3.315,2.813,3.106,3.106,0,0,0,0,.5v.664h-1.223v-.664a4.854,4.854,0,0,1,.907-2.858.7.7,0,0,0-.1-.931.582.582,0,0,0-.82.061.561.561,0,0,0-.041.053,6.233,6.233,0,0,0-1.167,3.676v.664h-3.066a.667.667,0,0,0-.606.723.667.667,0,0,0,.606.606h17.157a.667.667,0,0,0,.606-.723.667.667,0,0,0-.606-.606h-3.065v-.664A5.766,5.766,0,0,0-1064.748-1992.186Zm1.838,5.976c0,.32-.007.485-.018.664h-1.2v-.664a.616.616,0,0,0-.546-.679.617.617,0,0,0-.679.546.605.605,0,0,0,0,.133v.664h-1.225v-.664a1.922,1.922,0,0,1,1.834-2v0A1.922,1.922,0,0,1-1062.91-1986.21Z" transform="translate(1081.127 2004.502)" fill="#377844"/>
      <path id="Trazado_3130" data-name="Trazado 3130" d="M-893.226-1796.127v1.22a.616.616,0,0,0,.546.679.617.617,0,0,0,.679-.546.62.62,0,0,0,0-.133v-1.224Z" transform="translate(908.992 1817.74)" fill="#377844"/>
      <path id="Trazado_3131" data-name="Trazado 3131" d="M-1028.727-2048.276a7.969,7.969,0,0,0-7.34,5.271.685.685,0,0,0,.326.87.572.572,0,0,0,.239.053.616.616,0,0,0,.564-.4,6.745,6.745,0,0,1,6.21-4.466,6.443,6.443,0,0,1,4.326,1.7.582.582,0,0,0,.822-.032.581.581,0,0,0,.042-.051.7.7,0,0,0-.076-.935A7.61,7.61,0,0,0-1028.727-2048.276Z" transform="translate(1045.106 2057.933)" fill="#377844"/>
      <path id="Trazado_3132" data-name="Trazado 3132" d="M-840.288-1796.13l-1.226,0v4.645a.616.616,0,0,0,.546.679.616.616,0,0,0,.679-.546.613.613,0,0,0,0-.133Z" transform="translate(859.73 1817.74)" fill="#377844"/>
      <path id="Trazado_3133" data-name="Trazado 3133" d="M-995.4-1796.13l-1.226,0v3.32a.616.616,0,0,0,.546.679.616.616,0,0,0,.679-.546.622.622,0,0,0,0-.133Z" transform="translate(1007.492 1817.74)" fill="#377844"/>
      <path id="Trazado_3134" data-name="Trazado 3134" d="M-943.691-1796.13l-1.226,0v4.645a.617.617,0,0,0,.546.679.616.616,0,0,0,.679-.546.613.613,0,0,0,0-.133Z" transform="translate(958.231 1817.74)" fill="#377844"/>
      <path id="Trazado_3135" data-name="Trazado 3135" d="M-1203.456-2249.793c-2.311-1.191-3.869-2.211-5.715-2.211s-3.4,1.02-5.714,2.211a39.681,39.681,0,0,1-10.253,3.692l-.589.141v.588c0,11.53,4.042,19.235,8.09,24.011a26.754,26.754,0,0,0,8.161,6.678l.329.164.329-.164s16.205-8.37,16.205-30.689v-.588l-.588-.141A39.682,39.682,0,0,1-1203.456-2249.793Zm-5.738,33.554a23.88,23.88,0,0,1-7.314-6.091c-3.784-4.46-7.53-11.641-7.668-22.482a42.375,42.375,0,0,0,9.972-3.645c2.36-1.209,3.8-2.041,5.032-2.041s2.671.832,5.034,2.045a42.361,42.361,0,0,0,9.971,3.641C-1194.443-2224.4-1208.227-2216.75-1209.194-2216.239Z" transform="translate(1225.728 2252.004)" fill="#377844"/>
    </g>
  </g>
</svg>
