<svg xmlns="http://www.w3.org/2000/svg" width="49.971" height="49.97" viewBox="0 0 49.971 49.97">
  <g id="Grupo_5036" data-name="Grupo 5036" transform="translate(20154.086 11345.843)">
    <ellipse id="Elipse_822" data-name="Elipse 822" cx="24.985" cy="24.985" rx="24.985" ry="24.985" transform="translate(-20154.086 -11345.843)" fill="#464646"/>
    <g id="Grupo_5020" data-name="Grupo 5020" transform="translate(-20145.318 -11335.662)">
      <g id="Grupo_5019" data-name="Grupo 5019" transform="translate(0 0)">
        <path id="Trazado_3207" data-name="Trazado 3207" d="M-4125-651.129h-5.236v5.373h-.948v-6.321H-4125Zm26.252,5.308h-.948v-5.236h-5.374v-.948h6.322Z" transform="translate(4131.179 652.077)" fill="#ddd"/>
      </g>
      <path id="Trazado_3208" data-name="Trazado 3208" d="M-4131.179-645.756h.948v-5.373H-4125v-.948h-6.184Z" transform="translate(4131.179 652.077)" fill="#ddd"/>
      <rect id="Rect치ngulo_1775" data-name="Rect치ngulo 1775" width="1.945" height="0.948" transform="translate(26.252 28.4)" fill="#ddd"/>
      <path id="Trazado_3209" data-name="Trazado 3209" d="M-3507.1-160v-6.322h-.948v5.374h-2.047V-160Z" transform="translate(3539.535 189.353)" fill="#ddd"/>
      <path id="Trazado_3210" data-name="Trazado 3210" d="M-3580.278-649.61h5.374v5.236h.948v-6.184h-6.322Z" transform="translate(3606.393 650.63)" fill="#ddd"/>
      <path id="Trazado_3211" data-name="Trazado 3211" d="M-4130.142-159.638v-5.236h-.948v6.184h2.991v-.948Z" transform="translate(4131.093 187.97)" fill="#ddd"/>
      <rect id="Rect치ngulo_1776" data-name="Rect치ngulo 1776" width="2.087" height="0.948" transform="translate(4.239 28.331)" fill="#ddd"/>
      <path id="Trazado_3212" data-name="Trazado 3212" d="M-3931.279-129.029h-1.459v3.953a.732.732,0,0,0,.67.789.732.732,0,0,0,.789-.67.8.8,0,0,0,0-.118Z" transform="translate(3942.147 153.823)" fill="#ddd"/>
      <path id="Trazado_3213" data-name="Trazado 3213" d="M-4041.553-527.307v-11.042h-.021a13.259,13.259,0,0,0-13.2-12.563,13.257,13.257,0,0,0-13.2,12.563h-.02v18.913c.455.293.817.419,1.244.72v-19.231l.018-.334a12.01,12.01,0,0,1,11.961-11.386,12.01,12.01,0,0,1,11.961,11.386l.018.34V-518.7c.448-.312.812-.412,1.244-.734v-7.871Z" transform="translate(4070.995 555.708)" fill="#ddd"/>
      <path id="Trazado_3214" data-name="Trazado 3214" d="M-3981.692-434.006a.712.712,0,0,0,.3.065.757.757,0,0,0,.7-.5,8.354,8.354,0,0,1,7.693-5.526,7.98,7.98,0,0,1,5.359,2.109.72.72,0,0,0,1.017-.039.681.681,0,0,0,.053-.064.87.87,0,0,0-.095-1.161,9.428,9.428,0,0,0-6.334-2.494,9.868,9.868,0,0,0-9.091,6.529A.849.849,0,0,0-3981.692-434.006Z" transform="translate(3989.222 451.59)" fill="#ddd"/>
      <path id="Trazado_3215" data-name="Trazado 3215" d="M-4005.786-363.272a.83.83,0,0,0-.718-.718h-3.8v-.822c0-4.085-3.064-7.405-6.831-7.405a6.319,6.319,0,0,0-2.276.422.839.839,0,0,0-.463,1.047.746.746,0,0,0,.923.512l.046-.015a4.936,4.936,0,0,1,1.77-.327,5.556,5.556,0,0,1,5.312,5.757v.829h-1.54c.014-.221.022-.426.022-.822a3.807,3.807,0,0,0-3.487-4.1,3.807,3.807,0,0,0-4.1,3.487,3.8,3.8,0,0,0,0,.615v.822h-1.518v-.822a6.012,6.012,0,0,1,1.124-3.541.868.868,0,0,0-.13-1.154.72.72,0,0,0-1.015.075.719.719,0,0,0-.05.066,7.721,7.721,0,0,0-1.446,4.553v.823h-3.8a.829.829,0,0,0-.718.927.829.829,0,0,0,.718.718h21.251A.83.83,0,0,0-4005.786-363.272Zm-9.067-1.542c0,.4-.008.6-.022.822h-1.5v-.822a.761.761,0,0,0-.7-.815.761.761,0,0,0-.815.7.718.718,0,0,0,0,.112v.824h-1.518v-.822a2.381,2.381,0,0,1,2.278-2.47A2.381,2.381,0,0,1-4014.854-364.814Z" transform="translate(4033.349 385.483)" fill="#ddd"/>
      <path id="Trazado_3216" data-name="Trazado 3216" d="M-3804.274-44.408h-.016a.792.792,0,0,0-.759.8l-.017.912a.8.8,0,0,0,.747.84h.016a.792.792,0,0,0,.759-.805l.016-.912A.794.794,0,0,0-3804.274-44.408Z" transform="translate(3820.526 73.215)" fill="#ddd"/>
      <path id="Trazado_3217" data-name="Trazado 3217" d="M-3675.495-129.3h-1.518v4.112a.761.761,0,0,0,.7.815.761.761,0,0,0,.815-.7.784.784,0,0,0,0-.112Z" transform="translate(3698.544 154.085)" fill="#ddd"/>
      <path id="Trazado_3218" data-name="Trazado 3218" d="M-3739.547-129.3h-1.517v5.758a.761.761,0,0,0,.7.82.761.761,0,0,0,.82-.7.739.739,0,0,0,0-.123Z" transform="translate(3759.56 154.085)" fill="#ddd"/>
      <path id="Trazado_3219" data-name="Trazado 3219" d="M-3867.633-129.3h-1.518v5.758a.761.761,0,0,0,.7.82.761.761,0,0,0,.821-.7.861.861,0,0,0,0-.123Z" transform="translate(3881.574 154.085)" fill="#ddd"/>
      <path id="Trazado_3220" data-name="Trazado 3220" d="M-3804.4-126.977a.761.761,0,0,0,.815-.7.718.718,0,0,0,0-.112V-129.3h-1.518v1.512A.761.761,0,0,0-3804.4-126.977Z" transform="translate(3820.559 154.085)" fill="#ddd"/>
    </g>
  </g>
</svg>
