<svg xmlns="http://www.w3.org/2000/svg" width="49.971" height="49.97" viewBox="0 0 49.971 49.97">
  <g id="Grupo_5027" data-name="Grupo 5027" transform="translate(20084.777 11421.272)">
    <ellipse id="Elipse_818" data-name="Elipse 818" cx="24.985" cy="24.985" rx="24.985" ry="24.985" transform="translate(-20084.777 -11421.272)" fill="#ddd"/>
    <g id="Grupo_5007" data-name="Grupo 5007" transform="translate(-20074.531 -11410.14)">
      <path id="Trazado_3119" data-name="Trazado 3119" d="M-2262.851-1818.653l-1.966,0v7.458a.986.986,0,0,0,.905,1.061.987.987,0,0,0,1.061-.905.979.979,0,0,0,0-.156Z" transform="translate(2282.506 1837.831)" fill="#377844"/>
      <path id="Trazado_3120" data-name="Trazado 3120" d="M-2179.909-1818.653l-1.966,0v5.327a.986.986,0,0,0,.905,1.061.986.986,0,0,0,1.061-.905.976.976,0,0,0,0-.156Z" transform="translate(2203.496 1837.831)" fill="#377844"/>
      <path id="Trazado_3121" data-name="Trazado 3121" d="M-2609.4-2122.672h-4.915v-1.064c0-5.288-3.97-9.589-8.849-9.589a8.19,8.19,0,0,0-2.948.547,1.087,1.087,0,0,0-.6,1.356.964.964,0,0,0,1.186.671l.068-.022a6.4,6.4,0,0,1,2.292-.423,7.192,7.192,0,0,1,6.884,7.459v1.065h-2c.019-.286.029-.552.029-1.065a4.932,4.932,0,0,0-4.52-5.312,4.932,4.932,0,0,0-5.312,4.52,4.93,4.93,0,0,0,0,.792v1.065h-1.966v-1.064a7.788,7.788,0,0,1,1.456-4.586,1.13,1.13,0,0,0-.168-1.494.933.933,0,0,0-1.316.1.953.953,0,0,0-.065.085,10,10,0,0,0-1.872,5.9v1.064h-4.916a1.069,1.069,0,0,0-.972,1.159,1.07,1.07,0,0,0,.972.972h27.527a1.07,1.07,0,0,0,.972-1.159A1.07,1.07,0,0,0-2609.4-2122.672Zm-10.814-1.064c0,.514-.011.778-.029,1.066h-1.937v-1.066a.986.986,0,0,0-.905-1.061.986.986,0,0,0-1.061.905,1.033,1.033,0,0,0,0,.156v1.064h-1.966v-1.064a3.082,3.082,0,0,1,2.948-3.2A3.082,3.082,0,0,1-2620.212-2123.737Z" transform="translate(2637.901 2137.588)" fill="#377844"/>
      <path id="Trazado_3122" data-name="Trazado 3122" d="M-2346.734-1708.618h-.021a1.027,1.027,0,0,0-.983,1.042l-.022,1.18a1.027,1.027,0,0,0,.962,1.088h.022a1.027,1.027,0,0,0,.983-1.043l.021-1.182A1.028,1.028,0,0,0-2346.734-1708.618Z" transform="translate(2361.515 1733.012)" fill="#377844"/>
      <path id="Trazado_3123" data-name="Trazado 3123" d="M-2347.783-1818.65v1.958a.986.986,0,0,0,.905,1.061.987.987,0,0,0,1.061-.906.976.976,0,0,0,0-.156v-1.961Z" transform="translate(2361.538 1837.831)" fill="#377844"/>
      <path id="Trazado_3124" data-name="Trazado 3124" d="M-2576.49-2213.375a.918.918,0,0,0,.384.085.98.98,0,0,0,.9-.649,10.823,10.823,0,0,1,9.966-7.158,10.337,10.337,0,0,1,6.941,2.732.933.933,0,0,0,1.318-.051.949.949,0,0,0,.068-.082,1.131,1.131,0,0,0-.123-1.5,12.215,12.215,0,0,0-8.206-3.227,12.788,12.788,0,0,0-11.776,8.458A1.1,1.1,0,0,0-2576.49-2213.375Z" transform="translate(2579.976 2223.226)" fill="#377844"/>
      <path id="Trazado_3125" data-name="Trazado 3125" d="M-2511.725-1818.653l-1.966,0v5.327a.986.986,0,0,0,.905,1.061.986.986,0,0,0,1.061-.905.976.976,0,0,0,0-.156Z" transform="translate(2519.583 1837.831)" fill="#377844"/>
      <path id="Trazado_3126" data-name="Trazado 3126" d="M-2428.76-1818.653l-1.966,0v7.458a.986.986,0,0,0,.906,1.061.986.986,0,0,0,1.061-.905.979.979,0,0,0,0-.156Z" transform="translate(2440.551 1837.831)" fill="#377844"/>
    </g>
  </g>
</svg>
