<svg xmlns="http://www.w3.org/2000/svg" width="104" height="104" viewBox="0 0 104 104"><defs><style>.a{fill:#f62a0b;}</style></defs><path class="a" d="M59,7a52,52,0,1,0,52,52A52.024,52.024,0,0,0,59,7Zm0,3.152c1.351,0,2.684.071,4.007.179a1.573,1.573,0,1,0,1.7.163,48.691,48.691,0,0,1,6.9,1.3,1.574,1.574,0,0,0,2.844.859,48.908,48.908,0,0,1,30.89,30.89,1.574,1.574,0,0,0,.859,2.844,48.691,48.691,0,0,1,1.3,6.9,1.577,1.577,0,1,0,.163,1.7c.107,1.322.179,2.654.179,4s-.071,2.684-.179,4.007a1.573,1.573,0,1,0-.163,1.7,48.691,48.691,0,0,1-1.3,6.9,1.574,1.574,0,0,0-.859,2.844,48.908,48.908,0,0,1-30.89,30.89,1.574,1.574,0,0,0-2.844.859,48.691,48.691,0,0,1-6.9,1.3,1.577,1.577,0,1,0-1.7.163c-1.322.107-2.654.179-4,.179s-2.684-.071-4.007-.179a1.573,1.573,0,1,0-1.7-.163,48.691,48.691,0,0,1-6.9-1.3,1.574,1.574,0,0,0-2.844-.859,48.908,48.908,0,0,1-30.89-30.89,1.574,1.574,0,0,0-.859-2.844,48.691,48.691,0,0,1-1.3-6.9A1.577,1.577,0,1,0,10.33,63c-.107-1.322-.179-2.654-.179-4s.071-2.684.179-4.007a1.573,1.573,0,1,0,.163-1.7,48.691,48.691,0,0,1,1.3-6.9,1.574,1.574,0,0,0,.859-2.844,48.908,48.908,0,0,1,30.89-30.89,1.574,1.574,0,0,0,2.844-.859,48.691,48.691,0,0,1,6.9-1.3A1.577,1.577,0,1,0,55,10.33C56.318,10.223,57.65,10.152,59,10.152ZM40.091,14.879a1.576,1.576,0,1,0,1.576,1.576A1.576,1.576,0,0,0,40.091,14.879Zm9.455,0a1.576,1.576,0,1,0,1.576,1.576A1.576,1.576,0,0,0,49.545,14.879Zm9.455,0a1.576,1.576,0,1,0,1.576,1.576A1.576,1.576,0,0,0,59,14.879Zm9.455,0a1.576,1.576,0,1,0,1.576,1.576A1.576,1.576,0,0,0,68.455,14.879Zm9.455,0a1.576,1.576,0,1,0,1.576,1.576A1.576,1.576,0,0,0,77.909,14.879ZM35.364,19.606a1.576,1.576,0,1,0,1.576,1.576A1.576,1.576,0,0,0,35.364,19.606Zm9.455,0a1.576,1.576,0,1,0,1.576,1.576A1.576,1.576,0,0,0,44.818,19.606Zm9.455,0a1.576,1.576,0,1,0,1.576,1.576A1.576,1.576,0,0,0,54.273,19.606Zm9.455,0A1.576,1.576,0,1,0,65.3,21.182,1.576,1.576,0,0,0,63.727,19.606Zm9.455,0a1.576,1.576,0,1,0,1.576,1.576A1.576,1.576,0,0,0,73.182,19.606Zm9.455,0a1.576,1.576,0,1,0,1.576,1.576A1.576,1.576,0,0,0,82.636,19.606Zm-52,4.727a1.576,1.576,0,1,0,1.576,1.576A1.576,1.576,0,0,0,30.636,24.333Zm9.455,0a1.576,1.576,0,1,0,1.576,1.576A1.576,1.576,0,0,0,40.091,24.333Zm9.455,0a1.576,1.576,0,1,0,1.576,1.576A1.576,1.576,0,0,0,49.545,24.333Zm9.455,0a1.576,1.576,0,1,0,1.576,1.576A1.576,1.576,0,0,0,59,24.333Zm9.455,0a1.576,1.576,0,1,0,1.576,1.576A1.576,1.576,0,0,0,68.455,24.333Zm9.455,0a1.576,1.576,0,1,0,1.576,1.576A1.576,1.576,0,0,0,77.909,24.333Zm9.455,0a1.576,1.576,0,1,0,1.576,1.576A1.576,1.576,0,0,0,87.364,24.333ZM25.909,29.061a1.576,1.576,0,1,0,1.576,1.576A1.576,1.576,0,0,0,25.909,29.061Zm9.455,0a1.576,1.576,0,1,0,1.576,1.576A1.576,1.576,0,0,0,35.364,29.061Zm9.455,0a1.576,1.576,0,1,0,1.576,1.576A1.576,1.576,0,0,0,44.818,29.061Zm9.455,0a1.576,1.576,0,1,0,1.576,1.576A1.576,1.576,0,0,0,54.273,29.061Zm9.455,0A1.576,1.576,0,1,0,65.3,30.636,1.576,1.576,0,0,0,63.727,29.061Zm9.455,0a1.576,1.576,0,1,0,1.576,1.576A1.576,1.576,0,0,0,73.182,29.061Zm9.455,0a1.576,1.576,0,1,0,1.576,1.576A1.576,1.576,0,0,0,82.636,29.061Zm9.455,0a1.576,1.576,0,1,0,1.576,1.576A1.576,1.576,0,0,0,92.091,29.061ZM21.182,33.788a1.576,1.576,0,1,0,1.576,1.576A1.576,1.576,0,0,0,21.182,33.788Zm9.455,0a1.576,1.576,0,1,0,1.576,1.576A1.576,1.576,0,0,0,30.636,33.788Zm9.455,0a1.576,1.576,0,1,0,1.576,1.576A1.576,1.576,0,0,0,40.091,33.788Zm9.455,0a1.576,1.576,0,1,0,1.576,1.576A1.576,1.576,0,0,0,49.545,33.788Zm9.455,0a1.576,1.576,0,1,0,1.576,1.576A1.576,1.576,0,0,0,59,33.788Zm9.455,0a1.576,1.576,0,1,0,1.576,1.576A1.576,1.576,0,0,0,68.455,33.788Zm9.455,0a1.576,1.576,0,1,0,1.576,1.576A1.576,1.576,0,0,0,77.909,33.788Zm9.455,0a1.576,1.576,0,1,0,1.576,1.576A1.576,1.576,0,0,0,87.364,33.788Zm9.455,0a1.576,1.576,0,1,0,1.576,1.576A1.576,1.576,0,0,0,96.818,33.788ZM45.631,36.715l-8.916,8.916L50.087,59,36.715,72.369l8.916,8.916L59,67.913,72.369,81.285l8.916-8.916L67.913,59,81.285,45.631l-1.114-1.114-7.8-7.8L59,50.087Zm-29.176,1.8a1.576,1.576,0,1,0,1.576,1.576A1.576,1.576,0,0,0,16.455,38.515Zm9.455,0a1.576,1.576,0,1,0,1.576,1.576A1.576,1.576,0,0,0,25.909,38.515Zm9.455,0a1.576,1.576,0,1,0,1.576,1.576A1.576,1.576,0,0,0,35.364,38.515Zm18.909,0a1.576,1.576,0,1,0,1.576,1.576A1.576,1.576,0,0,0,54.273,38.515Zm9.455,0A1.576,1.576,0,1,0,65.3,40.091,1.576,1.576,0,0,0,63.727,38.515Zm18.909,0a1.576,1.576,0,1,0,1.576,1.576A1.576,1.576,0,0,0,82.636,38.515Zm9.455,0a1.576,1.576,0,1,0,1.576,1.576A1.576,1.576,0,0,0,92.091,38.515Zm9.455,0a1.576,1.576,0,1,0,1.576,1.576A1.576,1.576,0,0,0,101.545,38.515ZM45.631,41.171,59,54.544,72.369,41.171l4.46,4.46L63.456,59,76.829,72.369l-4.46,4.46L59,63.456,45.631,76.829l-4.46-4.46L54.544,59,41.171,45.631ZM21.182,43.242a1.576,1.576,0,1,0,1.576,1.576A1.576,1.576,0,0,0,21.182,43.242Zm9.455,0a1.576,1.576,0,1,0,1.576,1.576A1.576,1.576,0,0,0,30.636,43.242Zm28.364,0a1.576,1.576,0,1,0,1.576,1.576A1.576,1.576,0,0,0,59,43.242Zm28.364,0a1.576,1.576,0,1,0,1.576,1.576A1.576,1.576,0,0,0,87.364,43.242Zm9.455,0a1.576,1.576,0,1,0,1.576,1.576A1.576,1.576,0,0,0,96.818,43.242ZM16.455,47.97a1.576,1.576,0,1,0,1.576,1.576A1.576,1.576,0,0,0,16.455,47.97Zm9.455,0a1.576,1.576,0,1,0,1.576,1.576A1.576,1.576,0,0,0,25.909,47.97Zm9.455,0a1.576,1.576,0,1,0,1.576,1.576A1.576,1.576,0,0,0,35.364,47.97Zm47.273,0a1.576,1.576,0,1,0,1.576,1.576A1.576,1.576,0,0,0,82.636,47.97Zm9.455,0a1.576,1.576,0,1,0,1.576,1.576A1.576,1.576,0,0,0,92.091,47.97Zm9.455,0a1.576,1.576,0,1,0,1.576,1.576A1.576,1.576,0,0,0,101.545,47.97ZM21.182,52.7a1.576,1.576,0,1,0,1.576,1.576A1.576,1.576,0,0,0,21.182,52.7Zm9.455,0a1.576,1.576,0,1,0,1.576,1.576A1.576,1.576,0,0,0,30.636,52.7Zm9.455,0a1.576,1.576,0,1,0,1.576,1.576A1.576,1.576,0,0,0,40.091,52.7Zm37.818,0a1.576,1.576,0,1,0,1.576,1.576A1.576,1.576,0,0,0,77.909,52.7Zm9.455,0a1.576,1.576,0,1,0,1.576,1.576A1.576,1.576,0,0,0,87.364,52.7Zm9.455,0a1.576,1.576,0,1,0,1.576,1.576A1.576,1.576,0,0,0,96.818,52.7ZM16.455,57.424A1.576,1.576,0,1,0,18.03,59,1.576,1.576,0,0,0,16.455,57.424Zm9.455,0A1.576,1.576,0,1,0,27.485,59,1.576,1.576,0,0,0,25.909,57.424Zm9.455,0A1.576,1.576,0,1,0,36.939,59,1.576,1.576,0,0,0,35.364,57.424Zm9.455,0A1.576,1.576,0,1,0,46.394,59,1.576,1.576,0,0,0,44.818,57.424Zm28.364,0A1.576,1.576,0,1,0,74.758,59,1.576,1.576,0,0,0,73.182,57.424Zm9.455,0A1.576,1.576,0,1,0,84.212,59,1.576,1.576,0,0,0,82.636,57.424Zm9.455,0A1.576,1.576,0,1,0,93.667,59,1.576,1.576,0,0,0,92.091,57.424Zm9.455,0A1.576,1.576,0,1,0,103.121,59,1.576,1.576,0,0,0,101.545,57.424ZM21.182,62.152a1.576,1.576,0,1,0,1.576,1.576A1.576,1.576,0,0,0,21.182,62.152Zm9.455,0a1.576,1.576,0,1,0,1.576,1.576A1.576,1.576,0,0,0,30.636,62.152Zm9.455,0a1.576,1.576,0,1,0,1.576,1.576A1.576,1.576,0,0,0,40.091,62.152Zm37.818,0a1.576,1.576,0,1,0,1.576,1.576A1.576,1.576,0,0,0,77.909,62.152Zm9.455,0a1.576,1.576,0,1,0,1.576,1.576A1.576,1.576,0,0,0,87.364,62.152Zm9.455,0a1.576,1.576,0,1,0,1.576,1.576A1.576,1.576,0,0,0,96.818,62.152ZM16.455,66.879a1.576,1.576,0,1,0,1.576,1.576A1.576,1.576,0,0,0,16.455,66.879Zm9.455,0a1.576,1.576,0,1,0,1.576,1.576A1.576,1.576,0,0,0,25.909,66.879Zm9.455,0a1.576,1.576,0,1,0,1.576,1.576A1.576,1.576,0,0,0,35.364,66.879Zm47.273,0a1.576,1.576,0,1,0,1.576,1.576A1.576,1.576,0,0,0,82.636,66.879Zm9.455,0a1.576,1.576,0,1,0,1.576,1.576A1.576,1.576,0,0,0,92.091,66.879Zm9.455,0a1.576,1.576,0,1,0,1.576,1.576A1.576,1.576,0,0,0,101.545,66.879ZM21.182,71.606a1.576,1.576,0,1,0,1.576,1.576A1.576,1.576,0,0,0,21.182,71.606Zm9.455,0a1.576,1.576,0,1,0,1.576,1.576A1.576,1.576,0,0,0,30.636,71.606Zm28.364,0a1.576,1.576,0,1,0,1.576,1.576A1.576,1.576,0,0,0,59,71.606Zm28.364,0a1.576,1.576,0,1,0,1.576,1.576A1.576,1.576,0,0,0,87.364,71.606Zm9.455,0a1.576,1.576,0,1,0,1.576,1.576A1.576,1.576,0,0,0,96.818,71.606ZM16.455,76.333a1.576,1.576,0,1,0,1.576,1.576A1.576,1.576,0,0,0,16.455,76.333Zm9.455,0a1.576,1.576,0,1,0,1.576,1.576A1.576,1.576,0,0,0,25.909,76.333Zm9.455,0a1.576,1.576,0,1,0,1.576,1.576A1.576,1.576,0,0,0,35.364,76.333Zm18.909,0a1.576,1.576,0,1,0,1.576,1.576A1.576,1.576,0,0,0,54.273,76.333Zm9.455,0A1.576,1.576,0,1,0,65.3,77.909,1.576,1.576,0,0,0,63.727,76.333Zm18.909,0a1.576,1.576,0,1,0,1.576,1.576A1.576,1.576,0,0,0,82.636,76.333Zm9.455,0a1.576,1.576,0,1,0,1.576,1.576A1.576,1.576,0,0,0,92.091,76.333Zm9.455,0a1.576,1.576,0,1,0,1.576,1.576A1.576,1.576,0,0,0,101.545,76.333ZM21.182,81.061a1.576,1.576,0,1,0,1.576,1.576A1.576,1.576,0,0,0,21.182,81.061Zm9.455,0a1.576,1.576,0,1,0,1.576,1.576A1.576,1.576,0,0,0,30.636,81.061Zm9.455,0a1.576,1.576,0,1,0,1.576,1.576A1.576,1.576,0,0,0,40.091,81.061Zm9.455,0a1.576,1.576,0,1,0,1.576,1.576A1.576,1.576,0,0,0,49.545,81.061Zm9.455,0a1.576,1.576,0,1,0,1.576,1.576A1.576,1.576,0,0,0,59,81.061Zm9.455,0a1.576,1.576,0,1,0,1.576,1.576A1.576,1.576,0,0,0,68.455,81.061Zm9.455,0a1.576,1.576,0,1,0,1.576,1.576A1.576,1.576,0,0,0,77.909,81.061Zm9.455,0a1.576,1.576,0,1,0,1.576,1.576A1.576,1.576,0,0,0,87.364,81.061Zm9.455,0a1.576,1.576,0,1,0,1.576,1.576A1.576,1.576,0,0,0,96.818,81.061ZM25.909,85.788a1.576,1.576,0,1,0,1.576,1.576A1.576,1.576,0,0,0,25.909,85.788Zm9.455,0a1.576,1.576,0,1,0,1.576,1.576A1.576,1.576,0,0,0,35.364,85.788Zm9.455,0a1.576,1.576,0,1,0,1.576,1.576A1.576,1.576,0,0,0,44.818,85.788Zm9.455,0a1.576,1.576,0,1,0,1.576,1.576A1.576,1.576,0,0,0,54.273,85.788Zm9.455,0A1.576,1.576,0,1,0,65.3,87.364,1.576,1.576,0,0,0,63.727,85.788Zm9.455,0a1.576,1.576,0,1,0,1.576,1.576A1.576,1.576,0,0,0,73.182,85.788Zm9.455,0a1.576,1.576,0,1,0,1.576,1.576A1.576,1.576,0,0,0,82.636,85.788Zm9.455,0a1.576,1.576,0,1,0,1.576,1.576A1.576,1.576,0,0,0,92.091,85.788ZM30.636,90.515a1.576,1.576,0,1,0,1.576,1.576A1.576,1.576,0,0,0,30.636,90.515Zm9.455,0a1.576,1.576,0,1,0,1.576,1.576A1.576,1.576,0,0,0,40.091,90.515Zm9.455,0a1.576,1.576,0,1,0,1.576,1.576A1.576,1.576,0,0,0,49.545,90.515Zm9.455,0a1.576,1.576,0,1,0,1.576,1.576A1.576,1.576,0,0,0,59,90.515Zm9.455,0a1.576,1.576,0,1,0,1.576,1.576A1.576,1.576,0,0,0,68.455,90.515Zm9.455,0a1.576,1.576,0,1,0,1.576,1.576A1.576,1.576,0,0,0,77.909,90.515Zm9.455,0a1.576,1.576,0,1,0,1.576,1.576A1.576,1.576,0,0,0,87.364,90.515Zm-52,4.727a1.576,1.576,0,1,0,1.576,1.576A1.576,1.576,0,0,0,35.364,95.242Zm9.455,0a1.576,1.576,0,1,0,1.576,1.576A1.576,1.576,0,0,0,44.818,95.242Zm9.455,0a1.576,1.576,0,1,0,1.576,1.576A1.576,1.576,0,0,0,54.273,95.242Zm9.455,0A1.576,1.576,0,1,0,65.3,96.818,1.576,1.576,0,0,0,63.727,95.242Zm9.455,0a1.576,1.576,0,1,0,1.576,1.576A1.576,1.576,0,0,0,73.182,95.242Zm9.455,0a1.576,1.576,0,1,0,1.576,1.576A1.576,1.576,0,0,0,82.636,95.242ZM40.091,99.97a1.576,1.576,0,1,0,1.576,1.576A1.576,1.576,0,0,0,40.091,99.97Zm9.455,0a1.576,1.576,0,1,0,1.576,1.576A1.576,1.576,0,0,0,49.545,99.97Zm9.455,0a1.576,1.576,0,1,0,1.576,1.576A1.576,1.576,0,0,0,59,99.97Zm9.455,0a1.576,1.576,0,1,0,1.576,1.576A1.576,1.576,0,0,0,68.455,99.97Zm9.455,0a1.576,1.576,0,1,0,1.576,1.576A1.576,1.576,0,0,0,77.909,99.97Z" transform="translate(-7 -7)"/></svg>